<?xml version="1.0" encoding="UTF-8"?>
<svg id="Laag_1" data-name="Laag 1" xmlns="http://www.w3.org/2000/svg" xmlns:xlink="http://www.w3.org/1999/xlink" viewBox="0 0 1222 480.66">
  <defs>
    <style>
      .cls-1 {
        fill: #4a4949;
      }

      .cls-1, .cls-2, .cls-3, .cls-4, .cls-5, .cls-6, .cls-7, .cls-8 {
        stroke-width: 0px;
      }

      .cls-2 {
        fill: url(#Naamloos_verloop_19);
      }

      .cls-3 {
        fill: url(#Naamloos_verloop_9);
      }

      .cls-4 {
        fill: #adb4d2;
      }

      .cls-5 {
        fill: #fff;
      }

      .cls-6 {
        fill: url(#radial-gradient);
      }

      .cls-7 {
        fill: #008296;
      }

      .cls-8 {
        fill: #e7efff;
      }
    </style>
    <linearGradient id="Naamloos_verloop_9" data-name="Naamloos verloop 9" x1="638.96" y1="409.76" x2="638.96" y2="80.69" gradientUnits="userSpaceOnUse">
      <stop offset="0" stop-color="#008296"/>
      <stop offset="1" stop-color="#008296" stop-opacity=".3"/>
    </linearGradient>
    <linearGradient id="Naamloos_verloop_19" data-name="Naamloos verloop 19" x1="638.96" y1="391.64" x2="638.96" y2="98.8" gradientUnits="userSpaceOnUse">
      <stop offset="0" stop-color="#94e0fe" stop-opacity=".3"/>
      <stop offset="1" stop-color="#008296"/>
    </linearGradient>
    <radialGradient id="radial-gradient" cx="53.82" cy="-300.79" fx="53.82" fy="-300.79" r="801.22" gradientUnits="userSpaceOnUse">
      <stop offset="0" stop-color="#3a4a92"/>
      <stop offset=".02" stop-color="#3f4e94"/>
      <stop offset=".29" stop-color="#828cba"/>
      <stop offset=".53" stop-color="#b8bdd7"/>
      <stop offset=".73" stop-color="#dee1ed"/>
      <stop offset=".9" stop-color="#f6f7fa"/>
      <stop offset="1" stop-color="#fff"/>
    </radialGradient>
  </defs>
  <g>
    <path class="cls-3" d="m235.93,409.76c-90.72,0-164.53-73.81-164.53-164.53S145.21,80.69,235.93,80.69h806.06c90.72,0,164.53,73.81,164.53,164.53s-73.81,164.53-164.53,164.53H235.93Z"/>
    <path class="cls-2" d="m235.93,391.64c-80.74,0-146.42-65.68-146.42-146.42S155.2,98.8,235.93,98.8h806.06c80.74,0,146.42,65.68,146.42,146.42s-65.68,146.42-146.42,146.42H235.93Z"/>
    <g>
      <circle class="cls-4" cx="239.7" cy="244.03" r="221.39" transform="translate(-102.35 240.97) rotate(-45)"/>
      <circle class="cls-8" cx="239.7" cy="236.88" r="221.39"/>
      <circle class="cls-6" cx="239.7" cy="236.88" r="199.75"/>
    </g>
  </g>
  <g>
    <path class="cls-1" d="m358.75,165.15h-99.83c-5.41,0-10.25,2.53-13.39,6.45-1.34-1.62-2.99-3.08-4.94-4.3-8.35-5.24-77.47-22.05-85.32-23.95-1.15-.28-2.35-.01-3.29.71-.92.73-1.46,1.84-1.46,3.03v18.05h-18.06c-2.13,0-3.85,1.72-3.85,3.85v147.97c0,2.12,1.72,3.84,3.85,3.84h98.39v.47c0,2.12,1.73,3.85,3.86,3.85h21.82c2.13,0,3.85-1.73,3.85-3.85v-.47h98.38c2.13,0,3.85-1.72,3.85-3.84v-147.97c0-2.13-1.72-3.85-3.85-3.85Zm-222.45,138.47v-130.77h14.21v112.71c0,1.78,1.23,3.33,2.95,3.74,16.23,3.93,38.38,9.52,55.79,14.31h-72.94Zm105.45,2.93c-.38-.27-.77-.53-1.16-.79-7.69-4.82-66.93-19.46-82.38-23.23v-130.53c29.41,7.18,73.09,18.56,78.27,21.82,1.58.99,5.27,3.82,5.27,8.5v124.23Zm70.98-22.46h-19.19v-4.56h19.19v4.56Zm3.67-6.36h-26.89v-4.56h26.89v4.56Zm0-6.8h-26.89v-4.55h26.89v4.55Zm5.56-30.05c-2.9,3.55-5.21,6.37-5.21,9.57v13.87s-27.25,0-27.25,0v-13.87c.01-3.2-2.29-6.02-5.21-9.57-4.17-5.1-9.35-11.44-9.35-21.8,0-14.91,12.38-26.58,28.19-26.58s28.19,11.68,28.19,26.58c0,10.36-5.18,16.7-9.36,21.8Z"/>
    <path class="cls-7" d="m303.12,197.72c-13.11,0-22.99,9.2-22.99,21.37,0,8.5,4.17,13.58,8.17,18.5,3.29,4.02,6.4,7.81,6.4,12.86v8.65h16.85v-8.65c0-5.06,3.1-8.85,6.39-12.86,4.02-4.92,8.17-10,8.17-18.5,0-12.18-9.88-21.37-22.98-21.37Z"/>
  </g>
  <g>
    <path class="cls-5" d="m564.97,233h-17.44v49.12h-6.64v-49.12h-18.24l.39-5.2h42.32l-.39,5.2Z"/>
    <path class="cls-5" d="m572,236.44v-6.15h7.15v6.15h-7.15Zm.41,45.68v-37.21l6.41-.39v37.6h-6.41Z"/>
    <path class="cls-5" d="m623.6,262.28c0,1.88-.16,3.68-.47,5.41-.31,1.73-.79,3.35-1.44,4.85s-1.46,2.87-2.44,4.09c-.98,1.22-2.14,2.27-3.48,3.14-1.33.87-2.85,1.55-4.53,2.02-1.69.48-3.56.71-5.63.71-1.54,0-2.94-.11-4.2-.33-1.26-.22-2.4-.61-3.42-1.17v16.64l-6.54.39v-53.12l5.43-.55c.12.27.23.6.33.98.1.38.19.78.26,1.22.07.44.13.89.19,1.36.05.47.08.94.1,1.41.78-.81,1.63-1.53,2.54-2.17.91-.64,1.87-1.18,2.88-1.64,1.01-.46,2.06-.8,3.15-1.04,1.09-.24,2.21-.36,3.34-.36,2.23,0,4.2.36,5.93,1.09,1.72.73,3.18,1.84,4.37,3.34,1.18,1.5,2.09,3.39,2.71,5.66.62,2.28.93,4.97.93,8.07Zm-6.64.49c0-2-.18-3.83-.53-5.47s-.9-3.05-1.63-4.22c-.74-1.17-1.68-2.08-2.83-2.71-1.15-.64-2.53-.96-4.13-.96-1,0-1.97.14-2.91.41s-1.83.64-2.67,1.09c-.84.46-1.62.98-2.34,1.56s-1.36,1.19-1.92,1.82v21.68c1.05.52,2.26.97,3.62,1.35,1.36.38,2.77.57,4.23.57,1.8,0,3.39-.33,4.78-1.01,1.39-.67,2.55-1.65,3.49-2.93.94-1.28,1.65-2.86,2.13-4.74.48-1.88.72-4.02.72-6.45Z"/>
    <path class="cls-5" d="m657.68,271.96c0,1.42-.27,2.78-.81,4.08-.54,1.3-1.4,2.45-2.58,3.45-1.18,1-2.7,1.79-4.55,2.38s-4.09.89-6.71.89c-2.42,0-4.7-.27-6.84-.82-2.14-.55-4.15-1.34-6.04-2.38l1.6-5.04c2.04,1,4.09,1.8,6.15,2.39,2.06.59,4.03.89,5.92.89,1.38,0,2.55-.13,3.52-.4.96-.27,1.75-.63,2.35-1.08.61-.46,1.04-.98,1.32-1.58.27-.6.41-1.23.41-1.89,0-.7-.08-1.34-.25-1.9-.17-.57-.53-1.11-1.09-1.62-.56-.51-1.36-1.02-2.39-1.52-1.04-.5-2.43-1.03-4.17-1.59-1.59-.51-2.98-1.01-4.17-1.51-1.19-.5-2.22-1.02-3.09-1.55-.87-.53-1.59-1.09-2.16-1.67-.57-.58-1.03-1.2-1.36-1.86-.33-.66-.57-1.37-.7-2.13s-.21-1.59-.21-2.49c0-1.56.31-3.01.93-4.34.62-1.33,1.52-2.48,2.71-3.45,1.18-.97,2.64-1.73,4.37-2.28,1.72-.55,3.69-.82,5.91-.82,2.34,0,4.45.22,6.33.65,1.88.44,3.58,1.1,5.12,2l-1.76,4.86c-.59-.3-1.28-.58-2.07-.84-.79-.26-1.64-.49-2.54-.68s-1.82-.35-2.77-.46c-.95-.11-1.88-.17-2.77-.17-1.38,0-2.53.13-3.45.39-.92.26-1.65.62-2.2,1.07-.55.46-.93.99-1.15,1.6-.22.61-.33,1.27-.33,1.97,0,.52.04.99.12,1.42.08.42.22.81.44,1.17.21.36.51.7.9,1.02.38.32.88.63,1.49.95.61.31,1.35.63,2.22.96.87.33,1.89.68,3.08,1.05,2.36.76,4.27,1.52,5.74,2.3,1.47.78,2.62,1.6,3.44,2.47.82.87,1.38,1.8,1.67,2.8.29,1,.44,2.1.44,3.3Z"/>
    <path class="cls-5" d="m726.49,255.89c0,1.56-.29,3.18-.86,4.86-.57,1.68-1.41,3.39-2.5,5.14-1.09,1.75-2.43,3.5-4,5.27-1.58,1.77-3.37,3.53-5.37,5.27,1.04,1.59,1.98,2.97,2.81,4.15.83,1.18,1.59,2.18,2.28,3.02.68.83,1.31,1.52,1.88,2.06.57.54,1.1.97,1.61,1.28s1,.53,1.47.65c.47.12.97.19,1.47.21.48,0,1.02-.04,1.61-.13.59-.08,1.2-.2,1.83-.33s1.25-.3,1.87-.49c.62-.19,1.2-.38,1.75-.58l1.43,4.39c-.5.29-1.12.58-1.87.89-.75.31-1.57.59-2.45.85-.89.26-1.81.48-2.77.64-.96.17-1.91.25-2.83.25-.86,0-1.67-.08-2.43-.24-.76-.16-1.51-.44-2.26-.84-.74-.4-1.49-.93-2.25-1.59-.76-.66-1.56-1.5-2.41-2.5-.85-1-1.78-2.19-2.77-3.56-1-1.37-2.1-2.97-3.31-4.78-.76.42-1.63.81-2.64,1.17-1,.36-2.07.68-3.2.95s-2.3.48-3.51.62c-1.21.15-2.39.22-3.54.22-2.63,0-4.92-.35-6.88-1.04s-3.57-1.64-4.86-2.84c-1.29-1.2-2.25-2.59-2.89-4.18-.64-1.59-.96-3.27-.96-5.06,0-.85.07-1.66.22-2.43.15-.77.41-1.55.77-2.31.36-.77.85-1.56,1.46-2.38.61-.82,1.38-1.71,2.3-2.66.92-.95,2.02-2,3.29-3.13,1.27-1.14,2.74-2.41,4.42-3.8-.89-1.59-1.61-3.06-2.18-4.4s-1.02-2.61-1.35-3.8c-.33-1.18-.56-2.29-.69-3.32-.13-1.03-.2-2.01-.2-2.95,0-1.63.26-3.19.79-4.69.53-1.5,1.34-2.83,2.43-3.98,1.09-1.16,2.47-2.08,4.14-2.77,1.67-.69,3.64-1.04,5.92-1.04,1.76,0,3.32.22,4.68.65,1.36.44,2.51,1.04,3.45,1.83s1.67,1.72,2.19,2.8c.52,1.09.82,2.28.9,3.58,0,1.11-.08,2.12-.24,3.05-.16.92-.44,1.82-.83,2.69-.39.87-.9,1.73-1.53,2.6-.63.87-1.42,1.8-2.36,2.79-.94,1-2.05,2.08-3.33,3.26-1.28,1.18-2.75,2.52-4.41,4.01,1.73,3.1,3.54,6.24,5.43,9.42,1.89,3.18,3.86,6.36,5.92,9.54,1.48-1.34,2.82-2.67,4-3.98,1.18-1.31,2.19-2.62,3.02-3.91.83-1.29,1.46-2.56,1.91-3.8.45-1.24.67-2.46.67-3.66,0-.6-.09-1.14-.28-1.63-.19-.49-.53-.95-1.02-1.39-.49-.44-1.16-.86-2.01-1.28-.85-.42-1.94-.85-3.25-1.31l2.4-4.32c1.86.44,3.42.97,4.69,1.57,1.26.61,2.28,1.29,3.06,2.04.77.76,1.33,1.58,1.67,2.48.34.9.51,1.86.51,2.87Zm-20.62,19.75c-1.97-3.03-3.85-6.06-5.66-9.09-1.81-3.03-3.57-6.1-5.29-9.23-1.72,1.46-3.13,2.72-4.25,3.78-1.11,1.06-1.99,2.01-2.63,2.85-.64.84-1.08,1.62-1.33,2.33-.25.72-.37,1.46-.37,2.25,0,1.35.25,2.59.74,3.72.49,1.13,1.21,2.1,2.14,2.91.93.81,2.06,1.45,3.4,1.89,1.33.45,2.84.67,4.52.67.7,0,1.45-.05,2.25-.16.79-.1,1.58-.25,2.36-.44.78-.19,1.53-.41,2.24-.66.71-.25,1.34-.53,1.88-.83Zm.94-39.04c0-.96-.15-1.81-.46-2.53-.31-.72-.73-1.33-1.28-1.83-.55-.49-1.2-.87-1.96-1.11-.76-.25-1.61-.37-2.53-.37-1.08,0-2.03.17-2.85.5s-1.5.8-2.05,1.42c-.55.61-.96,1.36-1.24,2.25-.28.89-.42,1.88-.42,2.97,0,.64.04,1.35.14,2.14.09.79.26,1.66.51,2.61.25.95.58,1.98,1.01,3.08.42,1.1.97,2.28,1.63,3.54,1.94-1.76,3.53-3.29,4.76-4.59,1.23-1.3,2.2-2.44,2.9-3.43.7-.98,1.19-1.84,1.46-2.58.27-.74.4-1.42.4-2.06Z"/>
    <path class="cls-5" d="m790.18,233h-17.44v49.12h-6.64v-49.12h-18.24l.39-5.2h42.32l-.39,5.2Z"/>
    <path class="cls-5" d="m812.92,249.95c-.3-.03-.56-.04-.78-.05-.22,0-.42-.01-.6-.02-.18,0-.34,0-.49,0h-.46c-.64,0-1.21.04-1.73.11-.51.07-1.01.23-1.47.47-.47.24-.94.6-1.42,1.07-.48.48-1,1.11-1.57,1.91-.57.8-1.21,1.79-1.91,2.97-.7,1.18-1.52,2.6-2.46,4.27v21.45h-6.41v-37.21l5.06-.55c.14.3.27.78.37,1.44.1.66.2,1.43.28,2.32.08.89.15,1.88.21,2.95.05,1.07.08,2.17.1,3.29.68-1.43,1.31-2.68,1.89-3.73s1.15-1.96,1.68-2.71c.53-.75,1.05-1.37,1.54-1.86.49-.48,1-.86,1.51-1.14.51-.28,1.05-.47,1.6-.58.55-.1,1.14-.16,1.77-.16.77,0,1.5.05,2.19.16.69.1,1.24.21,1.64.33l-.55,5.27Z"/>
    <path class="cls-5" d="m820.01,236.44v-6.15h7.15v6.15h-7.15Zm.41,45.68v-37.21l6.41-.39v37.6h-6.41Z"/>
    <path class="cls-5" d="m862.1,250.52c-.6-.2-1.21-.36-1.84-.51-.62-.14-1.24-.26-1.85-.35-.61-.09-1.19-.16-1.75-.2-.56-.04-1.07-.06-1.54-.06-2.06,0-3.84.31-5.34.92-1.5.61-2.75,1.54-3.74,2.79-.99,1.25-1.72,2.82-2.2,4.7-.48,1.88-.71,4.09-.71,6.63,0,2.17.2,4.07.61,5.67.4,1.61,1.03,2.94,1.88,3.99.85,1.05,1.93,1.84,3.26,2.35,1.33.51,2.91.77,4.75.77,1.65,0,3.28-.23,4.87-.68,1.59-.46,3.14-1.11,4.64-1.95l1.91,4.73c-1.81,1.08-3.78,1.91-5.9,2.49-2.12.58-4.47.87-7.05.87-2.44,0-4.61-.32-6.51-.97-1.91-.64-3.52-1.67-4.83-3.09-1.32-1.41-2.31-3.25-3-5.51-.68-2.26-1.03-5-1.03-8.21,0-3.44.45-6.46,1.34-9.05.89-2.6,2.14-4.77,3.75-6.5,1.61-1.74,3.53-3.05,5.75-3.93s4.67-1.32,7.32-1.32c1.69,0,3.23.11,4.62.33,1.39.22,2.72.59,4.01,1.11l-1.43,4.96Z"/>
    <path class="cls-5" d="m879.64,261.96l15.45-16.97h7.36l-15.76,17.29,17.75,19.77-8.01.23-16.8-18.55v18.4h-6.41v-56.64l6.41-.49v36.97Z"/>
    <path class="cls-5" d="m935.3,271.96c0,1.42-.27,2.78-.81,4.08-.54,1.3-1.4,2.45-2.58,3.45-1.18,1-2.7,1.79-4.55,2.38s-4.09.89-6.71.89c-2.42,0-4.7-.27-6.84-.82-2.14-.55-4.15-1.34-6.04-2.38l1.6-5.04c2.04,1,4.09,1.8,6.15,2.39,2.06.59,4.03.89,5.92.89,1.38,0,2.55-.13,3.52-.4.96-.27,1.75-.63,2.35-1.08.61-.46,1.04-.98,1.32-1.58.27-.6.41-1.23.41-1.89,0-.7-.08-1.34-.25-1.9-.17-.57-.53-1.11-1.09-1.62-.56-.51-1.36-1.02-2.39-1.52-1.04-.5-2.43-1.03-4.17-1.59-1.59-.51-2.98-1.01-4.17-1.51-1.19-.5-2.22-1.02-3.09-1.55-.87-.53-1.59-1.09-2.16-1.67-.57-.58-1.03-1.2-1.36-1.86-.33-.66-.57-1.37-.7-2.13s-.21-1.59-.21-2.49c0-1.56.31-3.01.93-4.34.62-1.33,1.52-2.48,2.71-3.45,1.18-.97,2.64-1.73,4.37-2.28,1.72-.55,3.69-.82,5.91-.82,2.34,0,4.45.22,6.33.65,1.88.44,3.58,1.1,5.12,2l-1.76,4.86c-.59-.3-1.28-.58-2.07-.84-.79-.26-1.64-.49-2.54-.68s-1.82-.35-2.77-.46c-.95-.11-1.88-.17-2.77-.17-1.38,0-2.53.13-3.45.39-.92.26-1.65.62-2.2,1.07-.55.46-.93.99-1.15,1.6-.22.61-.33,1.27-.33,1.97,0,.52.04.99.12,1.42.08.42.22.81.44,1.17.21.36.51.7.9,1.02.38.32.88.63,1.49.95.61.31,1.35.63,2.22.96.87.33,1.89.68,3.08,1.05,2.36.76,4.27,1.52,5.74,2.3,1.47.78,2.62,1.6,3.44,2.47.82.87,1.38,1.8,1.67,2.8.29,1,.44,2.1.44,3.3Z"/>
  </g>
</svg>