<?xml version="1.0" encoding="UTF-8"?>
<svg id="Laag_1" data-name="Laag 1" xmlns="http://www.w3.org/2000/svg" xmlns:xlink="http://www.w3.org/1999/xlink" viewBox="0 0 1222 480.66">
  <defs>
    <style>
      .cls-1 {
        fill: #4a4949;
      }

      .cls-1, .cls-2, .cls-3, .cls-4, .cls-5, .cls-6, .cls-7, .cls-8 {
        stroke-width: 0px;
      }

      .cls-2 {
        fill: url(#Naamloos_verloop_19);
      }

      .cls-3 {
        fill: url(#Naamloos_verloop_9);
      }

      .cls-4 {
        fill: #adb4d2;
      }

      .cls-5 {
        fill: #fff;
      }

      .cls-6 {
        fill: url(#radial-gradient);
      }

      .cls-7 {
        fill: #008296;
      }

      .cls-8 {
        fill: #e7efff;
      }
    </style>
    <linearGradient id="Naamloos_verloop_9" data-name="Naamloos verloop 9" x1="638.96" y1="422.42" x2="638.96" y2="93.36" gradientUnits="userSpaceOnUse">
      <stop offset="0" stop-color="#008296"/>
      <stop offset="1" stop-color="#008296" stop-opacity=".3"/>
    </linearGradient>
    <linearGradient id="Naamloos_verloop_19" data-name="Naamloos verloop 19" x1="638.96" y1="404.31" x2="638.96" y2="111.47" gradientUnits="userSpaceOnUse">
      <stop offset="0" stop-color="#94e0fe" stop-opacity=".3"/>
      <stop offset="1" stop-color="#008296"/>
    </linearGradient>
    <radialGradient id="radial-gradient" cx="53.82" cy="-288.12" fx="53.82" fy="-288.12" r="801.22" gradientUnits="userSpaceOnUse">
      <stop offset="0" stop-color="#3a4a92"/>
      <stop offset=".02" stop-color="#3f4e94"/>
      <stop offset=".29" stop-color="#828cba"/>
      <stop offset=".53" stop-color="#b8bdd7"/>
      <stop offset=".73" stop-color="#dee1ed"/>
      <stop offset=".9" stop-color="#f6f7fa"/>
      <stop offset="1" stop-color="#fff"/>
    </radialGradient>
  </defs>
  <g>
    <path class="cls-3" d="m235.93,422.42c-90.72,0-164.53-73.81-164.53-164.53S145.21,93.36,235.93,93.36h806.06c90.72,0,164.53,73.81,164.53,164.53s-73.81,164.53-164.53,164.53H235.93Z"/>
    <path class="cls-2" d="m235.93,404.31c-80.74,0-146.42-65.68-146.42-146.42S155.2,111.47,235.93,111.47h806.06c80.74,0,146.42,65.68,146.42,146.42s-65.68,146.42-146.42,146.42H235.93Z"/>
    <g>
      <circle class="cls-4" cx="239.7" cy="256.7" r="221.39" transform="translate(-111.31 244.68) rotate(-45)"/>
      <circle class="cls-8" cx="239.7" cy="249.54" r="221.39"/>
      <circle class="cls-6" cx="239.7" cy="249.54" r="199.75"/>
    </g>
  </g>
  <g>
    <path class="cls-1" d="m151.46,172.14h29.37c1.73,0,3.14,1.4,3.14,3.14v158.89h114.34c1.73,0,3.14,1.41,3.14,3.14v16.29c0,1.73-1.41,3.14-3.14,3.14h-146.85c-1.73,0-3.14-1.41-3.14-3.14v-178.32c0-1.73,1.41-3.14,3.14-3.14h0Zm26.23,6.28h-23.09v172.04h140.57v-10.01h-114.34c-1.73,0-3.14-1.41-3.14-3.14v-158.89Z"/>
    <path class="cls-1" d="m299.89,199.24c1.73,0,3.14-1.41,3.14-3.14s-1.41-3.14-3.14-3.14h-91.27c-1.73,0-3.14,1.41-3.14,3.14s1.41,3.14,3.14,3.14h91.27Z"/>
    <path class="cls-1" d="m299.89,220.06c1.73,0,3.14-1.41,3.14-3.14s-1.41-3.14-3.14-3.14h-91.27c-1.73,0-3.14,1.41-3.14,3.14s1.41,3.14,3.14,3.14h91.27Z"/>
    <path class="cls-1" d="m299.89,240.88c1.73,0,3.14-1.41,3.14-3.14s-1.41-3.14-3.14-3.14h-91.27c-1.73,0-3.14,1.41-3.14,3.14s1.41,3.14,3.14,3.14h91.27Z"/>
    <path class="cls-1" d="m299.89,261.7c1.73,0,3.14-1.41,3.14-3.14s-1.41-3.14-3.14-3.14h-91.27c-1.73,0-3.14,1.4-3.14,3.14s1.41,3.14,3.14,3.14h91.27Z"/>
    <path class="cls-1" d="m299.89,282.52c1.73,0,3.14-1.41,3.14-3.14s-1.41-3.14-3.14-3.14h-91.27c-1.73,0-3.14,1.41-3.14,3.14s1.41,3.14,3.14,3.14h91.27Z"/>
    <path class="cls-1" d="m299.89,303.34c1.73,0,3.14-1.41,3.14-3.14s-1.41-3.14-3.14-3.14h-91.27c-1.73,0-3.14,1.41-3.14,3.14s1.41,3.14,3.14,3.14h91.27Z"/>
    <path class="cls-7" d="m180.83,155.85h121.79c.87,0,1.66.36,2.23.93l25.05,25.05h0c.61.61.92,1.42.92,2.22h0v153.26c0,1.73-1.41,3.14-3.14,3.14h-146.85c-1.73,0-3.14-1.41-3.14-3.14v-178.32c0-1.73,1.41-3.14,3.14-3.14h0Zm120.49,6.28h-117.35v172.04h140.57v-148.82l-23.22-23.22Z"/>
  </g>
  <g>
    <path class="cls-5" d="m569.6,266.78c0,2.72-.22,5.3-.66,7.74-.44,2.44-1.12,4.7-2.04,6.78-.92,2.08-2.07,3.95-3.47,5.61-1.39,1.66-3.04,3.08-4.93,4.25s-4.05,2.07-6.46,2.7c-2.41.62-5.09.94-8.05.94h-15.51v-54.32h17.03c2.38,0,4.63.19,6.75.56,2.12.37,4.07.98,5.85,1.82,1.78.84,3.38,1.93,4.8,3.28,1.42,1.35,2.62,3,3.61,4.94.99,1.95,1.75,4.22,2.28,6.82s.79,5.56.79,8.9Zm-34.47-21.19v44h8.87c3.28,0,6.1-.53,8.47-1.58s4.3-2.56,5.82-4.53c1.52-1.97,2.64-4.35,3.36-7.16.72-2.81,1.08-5.96,1.08-9.46s-.36-6.36-1.06-8.99c-.71-2.64-1.82-4.86-3.32-6.68s-3.42-3.2-5.74-4.16-5.11-1.44-8.35-1.44h-9.12Z"/>
    <path class="cls-5" d="m610.89,275.27c0,2.96-.38,5.66-1.14,8.12s-1.88,4.58-3.36,6.35c-1.48,1.77-3.31,3.15-5.49,4.13-2.18.98-4.69,1.47-7.53,1.47s-5.14-.37-7.21-1.11-3.8-1.87-5.19-3.38c-1.39-1.51-2.43-3.42-3.12-5.73-.7-2.31-1.04-5.04-1.04-8.17s.41-5.71,1.23-8.18c.82-2.47,2-4.6,3.54-6.38s3.42-3.16,5.62-4.14c2.21-.98,4.69-1.47,7.45-1.47s5,.36,7.02,1.07c2.02.72,3.72,1.83,5.08,3.34,1.36,1.51,2.39,3.43,3.09,5.75.7,2.32,1.04,5.1,1.04,8.33Zm-6.64.47c0-2.14-.19-4.07-.57-5.81-.38-1.74-.98-3.22-1.8-4.44-.82-1.22-1.88-2.17-3.17-2.83-1.3-.66-2.86-1-4.7-1-1.64,0-3.12.33-4.43.98-1.32.65-2.43,1.6-3.35,2.85s-1.62,2.79-2.12,4.62c-.5,1.83-.74,3.92-.74,6.28,0,2.66.25,4.89.76,6.69.51,1.8,1.22,3.25,2.14,4.35s2.02,1.88,3.31,2.34,2.71.7,4.28.7c1.72,0,3.23-.34,4.52-1.03,1.29-.68,2.38-1.66,3.25-2.94.87-1.28,1.53-2.82,1.96-4.64.44-1.82.65-3.86.65-6.12Z"/>
    <path class="cls-5" d="m643.45,263.18c-.6-.2-1.21-.36-1.84-.51-.62-.14-1.24-.26-1.85-.35-.61-.09-1.19-.16-1.75-.2-.56-.04-1.07-.06-1.54-.06-2.06,0-3.84.31-5.34.92-1.5.61-2.75,1.54-3.74,2.79-.99,1.25-1.72,2.82-2.2,4.7-.48,1.88-.71,4.09-.71,6.63,0,2.17.2,4.07.61,5.67.4,1.61,1.03,2.94,1.88,3.99.85,1.05,1.93,1.84,3.26,2.35,1.33.51,2.91.77,4.75.77,1.65,0,3.28-.23,4.87-.68,1.59-.46,3.14-1.11,4.64-1.95l1.91,4.73c-1.81,1.08-3.78,1.91-5.9,2.49-2.12.58-4.47.87-7.05.87-2.44,0-4.61-.32-6.51-.97-1.91-.64-3.52-1.67-4.83-3.09-1.32-1.41-2.31-3.25-3-5.51-.68-2.26-1.03-5-1.03-8.21,0-3.44.45-6.46,1.34-9.05.89-2.6,2.14-4.77,3.75-6.5,1.61-1.74,3.53-3.05,5.75-3.93s4.67-1.32,7.32-1.32c1.69,0,3.23.11,4.62.33,1.39.22,2.72.59,4.01,1.11l-1.43,4.96Z"/>
    <path class="cls-5" d="m678.48,295.1c-.12-.26-.22-.61-.31-1.04-.09-.43-.17-.91-.23-1.44-.07-.53-.12-1.08-.16-1.66-.04-.58-.07-1.15-.1-1.71-1.28,1.16-2.51,2.13-3.7,2.92-1.19.79-2.35,1.42-3.49,1.9-1.13.48-2.25.83-3.35,1.04-1.1.21-2.2.31-3.29.31-1.82,0-3.34-.25-4.56-.74-1.22-.49-2.19-1.2-2.93-2.11-.74-.91-1.26-2.02-1.57-3.33s-.47-2.77-.47-4.38v-27.21l6.48-.31v27.13c0,.82.09,1.58.27,2.27.18.69.48,1.29.91,1.8.42.51.98.9,1.66,1.18.68.28,1.53.42,2.53.42.78,0,1.61-.11,2.5-.33.88-.22,1.81-.57,2.77-1.04.96-.47,1.96-1.07,2.98-1.81,1.02-.74,2.05-1.62,3.1-2.67v-26.64l6.48-.31v37.44l-5.53.31Z"/>
    <path class="cls-5" d="m741.28,267.91c0-.81-.08-1.56-.22-2.26-.15-.7-.41-1.31-.79-1.83-.38-.52-.89-.93-1.54-1.23-.65-.3-1.48-.45-2.48-.45-1.54,0-3.22.48-5.04,1.44-1.82.96-3.74,2.43-5.76,4.4v26.8h-6.23v-27.03c0-.82-.06-1.57-.19-2.26-.12-.68-.36-1.28-.71-1.78-.35-.5-.84-.89-1.46-1.16s-1.44-.41-2.44-.41c-.74,0-1.57.14-2.47.41-.91.27-1.85.68-2.84,1.22-.99.54-2.01,1.2-3.05,1.98-1.04.78-2.07,1.68-3.09,2.7v26.33h-6.31v-37.21l5.43-.55c.12.27.22.63.31,1.08.09.45.17.96.23,1.52.06.57.12,1.18.17,1.83.04.65.07,1.33.09,2.03,1.3-1.21,2.55-2.24,3.74-3.1,1.19-.85,2.35-1.55,3.49-2.09,1.13-.54,2.25-.93,3.36-1.17,1.11-.24,2.22-.36,3.34-.36,2.56,0,4.54.51,5.92,1.54,1.38,1.03,2.23,2.62,2.56,4.79,1.13-1.08,2.25-2.02,3.35-2.81,1.1-.79,2.19-1.45,3.27-1.97,1.08-.52,2.17-.91,3.26-1.16s2.2-.38,3.32-.38c1.76,0,3.23.21,4.4.64,1.18.43,2.12,1.06,2.83,1.9.71.84,1.21,1.88,1.51,3.12.3,1.24.45,2.69.45,4.33v28.01h-6.41v-26.88Z"/>
    <path class="cls-5" d="m785.24,292.53c-1.12.58-2.3,1.07-3.55,1.48s-2.57.72-3.96.94-2.88.32-4.46.32c-2.36,0-4.51-.31-6.46-.94s-3.63-1.62-5.03-2.99c-1.4-1.37-2.49-3.14-3.26-5.32-.78-2.18-1.16-4.83-1.16-7.96,0-3.46.42-6.52,1.26-9.16.84-2.64,2.04-4.86,3.59-6.64,1.56-1.78,3.44-3.13,5.65-4.04,2.21-.91,4.69-1.37,7.42-1.37,2.06,0,3.88.34,5.46,1.03s2.91,1.64,3.98,2.87,1.89,2.7,2.44,4.4c.55,1.71.83,3.58.83,5.62v1.26c0,.42,0,.87-.03,1.33-.02.46-.04.96-.07,1.49-.03.53-.07,1.12-.14,1.76h-24.08c0,2.38.22,4.43.66,6.13.44,1.71,1.12,3.11,2.04,4.2s2.07,1.9,3.47,2.41c1.39.51,3.04.77,4.94.77s3.93-.34,5.86-1.02c1.93-.68,3.89-1.64,5.9-2.89l1.93,4.32c-1.04.74-2.12,1.4-3.24,1.98Zm-3.01-21.26c0-1.5-.16-2.83-.49-4.01-.33-1.18-.8-2.18-1.44-3-.63-.82-1.42-1.45-2.35-1.88s-2.02-.64-3.24-.64c-1.45,0-2.77.21-3.98.64s-2.28,1.08-3.2,1.94c-.92.87-1.69,1.95-2.29,3.25-.61,1.3-1.02,2.83-1.24,4.57h18.24v-.88Z"/>
    <path class="cls-5" d="m821.77,294.78v-26.88c0-.81-.07-1.56-.22-2.26-.15-.7-.41-1.31-.79-1.83-.38-.52-.88-.93-1.52-1.23-.64-.3-1.44-.45-2.42-.45-.78,0-1.65.14-2.6.42-.96.28-1.96.69-3,1.23-1.05.54-2.11,1.21-3.2,2-1.09.79-2.15,1.71-3.19,2.75v26.23h-6.41v-37.21l5.45-.47c.12.26.23.61.33,1.05.1.44.19.95.26,1.51s.13,1.18.19,1.83c.05.65.08,1.32.1,1.99,1.28-1.2,2.53-2.22,3.76-3.07,1.23-.85,2.44-1.54,3.63-2.08,1.19-.54,2.36-.94,3.51-1.19,1.15-.25,2.29-.38,3.41-.38,1.72,0,3.16.21,4.34.64s2.12,1.07,2.84,1.92c.71.85,1.23,1.91,1.54,3.18s.47,2.74.47,4.42v27.83h-6.46Z"/>
    <path class="cls-5" d="m856.13,294.71c-1.78.43-3.71.64-5.81.64-3.03,0-5.29-.72-6.76-2.15-1.47-1.43-2.21-3.7-2.21-6.82v-23.85l-5.04-.23.41-4.39,4.71-.25.9-11.99,5.51-.57v12.48h12.25l-.41,5.04h-11.84v23.2c0,.78.07,1.44.21,1.98.14.54.36.98.68,1.31.32.33.73.57,1.24.72.51.15,1.13.22,1.88.22,1.21,0,2.45-.14,3.71-.43,1.26-.29,2.64-.75,4.12-1.41l1.37,4.57c-1.5.85-3.13,1.48-4.91,1.91Z"/>
    <path class="cls-5" d="m897.45,289.9c.64,0,1.22-.02,1.76-.07.53-.05,1.12-.13,1.76-.24l.49,4.47c-.4.14-.86.28-1.38.4-.51.12-1.06.23-1.64.33-.58.1-1.18.17-1.8.22-.62.05-1.23.08-1.83.08-1.15,0-2.12-.11-2.91-.32-.79-.21-1.45-.54-1.96-.97-.51-.43-.91-.96-1.17-1.58-.27-.62-.44-1.35-.52-2.17-1.22,1.11-2.32,2.01-3.3,2.71-.98.7-1.93,1.24-2.86,1.64-.93.4-1.88.67-2.86.81-.98.14-2.08.21-3.3.21-1.34,0-2.61-.2-3.81-.61-1.2-.4-2.25-1.02-3.15-1.86-.91-.83-1.62-1.88-2.16-3.14-.53-1.26-.8-2.75-.8-4.47,0-.89.1-1.72.31-2.51.21-.79.6-1.53,1.17-2.22.57-.69,1.37-1.32,2.4-1.9,1.03-.58,2.37-1.1,4.02-1.57,1.65-.47,3.65-.88,6-1.22,2.34-.34,5.12-.62,8.34-.83v-7.27c0-2.04-.47-3.54-1.41-4.49-.94-.95-2.31-1.43-4.12-1.43-1.02,0-2.05.1-3.12.3-1.06.2-2.11.5-3.15.88-1.04.38-2.06.85-3.07,1.39-1,.54-1.97,1.15-2.89,1.83l-2.81-4.08c1.16-.85,2.34-1.6,3.55-2.28,1.21-.67,2.49-1.24,3.83-1.71,1.34-.47,2.77-.83,4.28-1.08,1.51-.25,3.14-.38,4.9-.38,3.32,0,5.86.9,7.61,2.7,1.75,1.8,2.63,4.39,2.63,7.79v19.84c0,.6.04,1.08.13,1.45.08.36.24.65.46.85.22.2.52.34.91.4.38.07.88.1,1.47.1Zm-9.36-10.72c-2.98.2-5.49.44-7.52.74-2.03.3-3.67.67-4.91,1.11-1.24.44-2.14.98-2.68,1.6-.54.62-.81,1.37-.81,2.23s.11,1.6.33,2.29c.22.69.57,1.28,1.04,1.78.47.5,1.06.88,1.77,1.14.71.27,1.55.4,2.53.4.7,0,1.46-.1,2.27-.31.81-.21,1.65-.53,2.53-.97.88-.44,1.78-1,2.7-1.69.92-.69,1.84-1.52,2.76-2.48v-5.84Z"/>
    <path class="cls-5" d="m923.98,294.71c-1.78.43-3.71.64-5.81.64-3.03,0-5.29-.72-6.76-2.15-1.47-1.43-2.21-3.7-2.21-6.82v-23.85l-5.04-.23.41-4.39,4.71-.25.9-11.99,5.51-.57v12.48h12.25l-.41,5.04h-11.84v23.2c0,.78.07,1.44.21,1.98.14.54.36.98.68,1.31.32.33.73.57,1.24.72.51.15,1.13.22,1.88.22,1.21,0,2.45-.14,3.71-.43,1.26-.29,2.64-.75,4.12-1.41l1.37,4.57c-1.5.85-3.13,1.48-4.91,1.91Z"/>
    <path class="cls-5" d="m936.26,249.1v-6.15h7.15v6.15h-7.15Zm.41,45.68v-37.21l6.41-.39v37.6h-6.41Z"/>
    <path class="cls-5" d="m980.87,292.53c-1.12.58-2.3,1.07-3.55,1.48s-2.57.72-3.96.94-2.88.32-4.46.32c-2.36,0-4.51-.31-6.46-.94s-3.63-1.62-5.03-2.99c-1.4-1.37-2.49-3.14-3.26-5.32-.78-2.18-1.16-4.83-1.16-7.96,0-3.46.42-6.52,1.26-9.16.84-2.64,2.04-4.86,3.59-6.64,1.56-1.78,3.44-3.13,5.65-4.04,2.21-.91,4.69-1.37,7.42-1.37,2.06,0,3.88.34,5.46,1.03s2.91,1.64,3.98,2.87,1.89,2.7,2.44,4.4c.55,1.71.83,3.58.83,5.62v1.26c0,.42,0,.87-.03,1.33-.02.46-.04.96-.07,1.49-.03.53-.07,1.12-.14,1.76h-24.08c0,2.38.22,4.43.66,6.13.44,1.71,1.12,3.11,2.04,4.2s2.07,1.9,3.47,2.41c1.39.51,3.04.77,4.94.77s3.93-.34,5.86-1.02c1.93-.68,3.89-1.64,5.9-2.89l1.93,4.32c-1.04.74-2.12,1.4-3.24,1.98Zm-3.01-21.26c0-1.5-.16-2.83-.49-4.01-.33-1.18-.8-2.18-1.44-3-.63-.82-1.42-1.45-2.35-1.88s-2.02-.64-3.24-.64c-1.45,0-2.77.21-3.98.64s-2.28,1.08-3.2,1.94c-.92.87-1.69,1.95-2.29,3.25-.61,1.3-1.02,2.83-1.24,4.57h18.24v-.88Z"/>
  </g>
</svg>