<?xml version="1.0" encoding="UTF-8"?>
<svg id="Laag_1" data-name="Laag 1" xmlns="http://www.w3.org/2000/svg" xmlns:xlink="http://www.w3.org/1999/xlink" viewBox="0 0 1222 480.66">
  <defs>
    <style>
      .cls-1 {
        fill: #4a4949;
      }

      .cls-1, .cls-2, .cls-3, .cls-4, .cls-5, .cls-6, .cls-7, .cls-8 {
        stroke-width: 0px;
      }

      .cls-2 {
        fill: url(#Naamloos_verloop_19);
      }

      .cls-3 {
        fill: url(#Naamloos_verloop_9);
      }

      .cls-4 {
        fill: #adb4d2;
      }

      .cls-5 {
        fill: #fff;
      }

      .cls-6 {
        fill: url(#radial-gradient);
      }

      .cls-7 {
        fill: #008296;
      }

      .cls-8 {
        fill: #e7efff;
      }
    </style>
    <linearGradient id="Naamloos_verloop_9" data-name="Naamloos verloop 9" x1="636.68" y1="414.09" x2="636.68" y2="85.03" gradientUnits="userSpaceOnUse">
      <stop offset="0" stop-color="#008296"/>
      <stop offset="1" stop-color="#008296" stop-opacity=".3"/>
    </linearGradient>
    <linearGradient id="Naamloos_verloop_19" data-name="Naamloos verloop 19" x1="636.68" y1="395.98" x2="636.68" y2="103.14" gradientUnits="userSpaceOnUse">
      <stop offset="0" stop-color="#94e0fe" stop-opacity=".3"/>
      <stop offset="1" stop-color="#008296"/>
    </linearGradient>
    <radialGradient id="radial-gradient" cx="51.54" cy="-296.45" fx="51.54" fy="-296.45" r="801.22" gradientUnits="userSpaceOnUse">
      <stop offset="0" stop-color="#3a4a92"/>
      <stop offset=".02" stop-color="#3f4e94"/>
      <stop offset=".29" stop-color="#828cba"/>
      <stop offset=".53" stop-color="#b8bdd7"/>
      <stop offset=".73" stop-color="#dee1ed"/>
      <stop offset=".9" stop-color="#f6f7fa"/>
      <stop offset="1" stop-color="#fff"/>
    </radialGradient>
  </defs>
  <g>
    <path class="cls-3" d="m233.65,414.09c-90.72,0-164.53-73.81-164.53-164.53S142.92,85.03,233.65,85.03h806.06c90.72,0,164.53,73.81,164.53,164.53s-73.81,164.53-164.53,164.53H233.65Z"/>
    <path class="cls-2" d="m233.65,395.98c-80.74,0-146.42-65.68-146.42-146.42S152.91,103.14,233.65,103.14h806.06c80.74,0,146.42,65.68,146.42,146.42s-65.68,146.42-146.42,146.42H233.65Z"/>
    <g>
      <circle class="cls-4" cx="237.42" cy="248.37" r="221.39" transform="translate(-106.09 240.63) rotate(-45)"/>
      <circle class="cls-8" cx="237.42" cy="241.22" r="221.39"/>
      <circle class="cls-6" cx="237.42" cy="241.22" r="199.75"/>
    </g>
  </g>
  <g>
    <path class="cls-1" d="m189.67,338.82c17.8-.25,33.5-6.71,47.96-16.58,21.78-14.87,38.6-34.77,55.25-54.81.42-.5,1.2-1.71,1.66-2.82-2.81,1.38-6.03,2.55-8.04,3.31-1.81.68-2.88-.22-2.6-2.15.22-1.5.39-2.49.71-3.98.16-.76.78-3.29.8-4.08-.7.39-1.84,1.88-2.33,2.45-5.57,6.42-10.96,12.99-16.63,19.31-11.56,12.89-23.93,24.88-38.56,34.34-15.76,10.19-32.65,14.94-51.54,11.68-35.09-6.07-60.43-40.01-55.97-75.3,4.01-31.72,27.62-55.6,59.43-60.09,35.74-5.05,70.61,20.65,76.09,56.32.99,6.42.9,13,1.31,19.53.51-4.38,1.23-8.83,1.5-13.3,2.67-43.97-35.11-79.79-78.91-74.9-44.9,5.01-76.8,45.01-71.53,89.68,4.86,41.26,39.88,71.98,81.41,71.41Z"/>
    <path class="cls-1" d="m319.77,208.85c-7.54,11.15-15.06,22.31-22.7,33.39-.48.7-1.94,1.21-2.84,1.08-6.52-.96-13.04-1.98-19.51-3.27-2.33-.46-3.81.09-5.12,2.1,7.37,3.42,14.69,6.81,21.92,10.16-.69,2.29-1.46,4.24-1.84,6.26-.43,2.26.63,3.11,2.8,2.27,1.98-.76,3.83-1.87,5.84-2.88,4.71,6.62,9.36,13.14,14.01,19.66,2.02-1.81,1.87-3.61,1.02-5.77-2.34-5.97-4.38-12.05-6.7-18.03-.63-1.62-.36-2.49.87-3.69,9.06-8.82,18.03-17.74,27.01-26.66.68-.67,1.12-1.57,1.87-2.65,11.89,16.72,23.29,32.75,34.8,48.95,2.59-3.59,3.62-8.75,3.09-11.89-.09-.51-.21-.96-.37-1.35-.52-1.21-1.02-2.47-1.41-3.5l-.62-1.68-2.48-6.75,4.13-5.73c1.52-2.11,1.04-5.06-1.07-6.59-2.11-1.52-5.06-1.04-6.59,1.07l-.4.55-2.28-6.21-1.18-3.2-.12-.32,3.58-4.97c1.52-2.11,1.04-5.06-1.07-6.59-2.05-1.48-4.88-1.07-6.44.88l-3.53-9.61c-.75-1.75-.34-2.91.75-4.37,4.2-5.65,9.04-12.35,12.77-18.31,2.26-3.62,3.19-6.7,4.65-10.75.89-2.47.47-5.09-1.74-6.94-2.22-1.85-4.83-1.72-7.14-.46-3.15,1.72-6.45,3.45-9.03,5.87-5.72,5.37-11.03,11.18-16.54,16.78-.65.66-1.58,1.63-2.27,1.55l-11.29-1.85-.69-.11.41-.56c1.52-2.11,1.04-5.06-1.07-6.59-2.11-1.52-5.06-1.04-6.59,1.07l-3.16,4.38-10.67-1.74.74-1.03c1.52-2.11,1.04-5.06-1.07-6.59-2.11-1.52-5.06-1.04-6.59,1.07l-3.49,4.85-19.22-3.14c-.19.02-.35.07-.48.17-2.16,1.67-4.19,3.51-6.56,5.54,18.37,8.48,36.23,16.72,54.16,24.99-.26.5-.39.83-.58,1.12Z"/>
  </g>
  <g>
    <path class="cls-7" d="m154.43,210.97c3.62-2.57,7.4-4.65,11.45-6.28,3.83-1.55,7.75-2.71,11.8-3.47,3.83-.72,7.71-.92,11.6-.85,3.18.06,6.33.42,9.44,1.02,1.72.33,3.43.77,5.11,1.29,2.04.63,4.04,1.41,6.06,2.1.34.12.44.31.43.65,0,9.73,0,19.46,0,29.19,0,2.56,0,5.12,0,7.68,0,.29,0,.58,0,.98-18.68-10.79-37.25-21.53-55.89-32.3Z"/>
    <path class="cls-7" d="m163.58,245.99v64.45c-.33-.15-.63-.26-.92-.41-5.92-2.89-11.22-6.66-15.85-11.35-5.44-5.5-9.61-11.83-12.51-18.99-1.86-4.58-3.15-9.32-3.72-14.25-.04-.32.05-.47.31-.62,5.22-3,10.45-6,15.67-9.02,5.5-3.18,11-6.37,16.5-9.55.15-.08.3-.16.52-.27Z"/>
    <path class="cls-7" d="m220.99,305.3c-1.9,1.16-3.78,2.36-5.71,3.46-2.96,1.68-6.08,3.02-9.31,4.07-3.58,1.16-7.23,2.03-10.98,2.51-3.93.49-7.86.54-11.8.27-3.38-.23-6.7-.83-9.97-1.7-2.59-.7-5.13-1.54-7.61-2.56-.34-.14-.47-.3-.47-.68.01-9.75.01-19.5.01-29.25,0-2.65,0-5.3,0-7.95,0-.17,0-.33,0-.6,18.66,10.78,37.23,21.51,55.79,32.24.02.06.03.13.05.19Z"/>
    <path class="cls-7" d="m130.32,263.41c-.09-1.39-.2-2.63-.23-3.88-.11-5.24.43-10.41,1.72-15.48,1.27-5.01,3.16-9.79,5.7-14.31,3.2-5.69,7.28-10.66,12.12-15.01,1-.9,2.08-1.69,3.11-2.55.25-.21.44-.17.7-.03,3.37,1.96,6.75,3.91,10.13,5.86,5.43,3.14,10.86,6.28,16.28,9.42,1.97,1.14,3.95,2.29,5.92,3.43.13.08.26.16.42.27-18.61,10.76-37.18,21.49-55.87,32.29Z"/>
    <path class="cls-7" d="m211.86,270.17v-64.56c1.16.6,2.29,1.14,3.38,1.74,5.59,3.09,10.59,6.94,14.92,11.66,3.59,3.92,6.57,8.24,8.97,12.98,1.32,2.61,2.47,5.3,3.38,8.09,1.12,3.45,1.91,6.97,2.38,10.57.04.34-.06.5-.34.66-5.45,3.13-10.9,6.27-16.34,9.42-3,1.73-5.99,3.49-8.99,5.23-2.35,1.36-4.7,2.72-7.05,4.08-.08.05-.18.08-.31.14Z"/>
    <path class="cls-7" d="m245.14,252.71c.07,1.07.16,2.03.2,3,.19,4.83-.25,9.6-1.23,14.33-1.36,6.53-3.86,12.6-7.3,18.29-3.26,5.38-7.39,10.03-12.19,14.09-.6.51-1.24.96-1.84,1.46-.29.24-.52.23-.83.04-5.23-3.03-10.46-6.06-15.69-9.08-5.43-3.14-10.86-6.28-16.28-9.42-.21-.12-.41-.24-.69-.41,18.63-10.78,37.19-21.52,55.86-32.32Z"/>
  </g>
  <g>
    <path class="cls-5" d="m553.96,265.56c0,2.47-.42,4.73-1.26,6.77-.84,2.04-2.09,3.78-3.76,5.23-1.67,1.45-3.75,2.58-6.25,3.37-2.5.79-5.41,1.19-8.73,1.19h-14.47v-54.32h14.39c2.84,0,5.26.31,7.26.93,2,.62,3.63,1.49,4.89,2.61,1.26,1.12,2.18,2.46,2.75,4.02.57,1.56.86,3.28.86,5.16,0,1.02-.1,2.01-.3,2.97-.2.96-.52,1.95-.96,2.96-.44,1.01-1,2.06-1.69,3.15-.69,1.09-1.52,2.28-2.5,3.55,1.8.51,3.32,1.18,4.56,2.01,1.24.83,2.25,1.79,3.03,2.87.77,1.08,1.33,2.26,1.67,3.54.34,1.28.51,2.6.51,3.98Zm-10.72-24.08c0-1.31-.2-2.51-.59-3.57-.39-1.07-1.01-1.98-1.87-2.72-.85-.75-1.96-1.32-3.32-1.73-1.36-.4-3.01-.61-4.95-.61h-6.46v19.2h13.11c.77-1.16,1.41-2.22,1.92-3.17.51-.96.93-1.85,1.26-2.69.33-.83.56-1.63.69-2.39s.21-1.53.21-2.31Zm4,24.8c0-1.41-.22-2.68-.65-3.82-.44-1.14-1.1-2.11-1.99-2.92-.89-.81-2.02-1.43-3.39-1.88-1.37-.44-2.98-.66-4.84-.66h-10.31v20.08h8.63c2.28,0,4.21-.29,5.81-.86,1.59-.57,2.89-1.35,3.89-2.32s1.72-2.12,2.18-3.43c.46-1.31.68-2.71.68-4.19Z"/>
    <path class="cls-5" d="m589.21,279.86c-1.12.58-2.3,1.07-3.55,1.48s-2.57.72-3.96.94-2.88.32-4.46.32c-2.36,0-4.51-.31-6.46-.94s-3.63-1.62-5.03-2.99c-1.4-1.37-2.49-3.14-3.26-5.32-.78-2.18-1.16-4.83-1.16-7.96,0-3.46.42-6.52,1.26-9.16.84-2.64,2.04-4.86,3.59-6.64,1.56-1.78,3.44-3.13,5.65-4.04,2.21-.91,4.69-1.37,7.42-1.37,2.06,0,3.88.34,5.46,1.03s2.91,1.64,3.98,2.87,1.89,2.7,2.44,4.4c.55,1.71.83,3.58.83,5.62v1.26c0,.42,0,.87-.03,1.33-.02.46-.04.96-.07,1.49-.03.53-.07,1.12-.14,1.76h-24.08c0,2.38.22,4.43.66,6.13.44,1.71,1.12,3.11,2.04,4.2s2.07,1.9,3.47,2.41c1.39.51,3.04.77,4.94.77s3.93-.34,5.86-1.02c1.93-.68,3.89-1.64,5.9-2.89l1.93,4.32c-1.04.74-2.12,1.4-3.24,1.98Zm-3.01-21.26c0-1.5-.16-2.83-.49-4.01-.33-1.18-.8-2.18-1.44-3-.63-.82-1.42-1.45-2.35-1.88s-2.02-.64-3.24-.64c-1.45,0-2.77.21-3.98.64s-2.28,1.08-3.2,1.94c-.92.87-1.69,1.95-2.29,3.25-.61,1.3-1.02,2.83-1.24,4.57h18.24v-.88Z"/>
    <path class="cls-5" d="m627.53,279.86c-1.12.58-2.3,1.07-3.55,1.48s-2.57.72-3.96.94-2.88.32-4.46.32c-2.36,0-4.51-.31-6.46-.94s-3.63-1.62-5.03-2.99c-1.4-1.37-2.49-3.14-3.26-5.32-.78-2.18-1.16-4.83-1.16-7.96,0-3.46.42-6.52,1.26-9.16.84-2.64,2.04-4.86,3.59-6.64,1.56-1.78,3.44-3.13,5.65-4.04,2.21-.91,4.69-1.37,7.42-1.37,2.06,0,3.88.34,5.46,1.03s2.91,1.64,3.98,2.87,1.89,2.7,2.44,4.4c.55,1.71.83,3.58.83,5.62v1.26c0,.42,0,.87-.03,1.33-.02.46-.04.96-.07,1.49-.03.53-.07,1.12-.14,1.76h-24.08c0,2.38.22,4.43.66,6.13.44,1.71,1.12,3.11,2.04,4.2s2.07,1.9,3.47,2.41c1.39.51,3.04.77,4.94.77s3.93-.34,5.86-1.02c1.93-.68,3.89-1.64,5.9-2.89l1.93,4.32c-1.04.74-2.12,1.4-3.24,1.98Zm-3.01-21.26c0-1.5-.16-2.83-.49-4.01-.33-1.18-.8-2.18-1.44-3-.63-.82-1.42-1.45-2.35-1.88s-2.02-.64-3.24-.64c-1.45,0-2.77.21-3.98.64s-2.28,1.08-3.2,1.94c-.92.87-1.69,1.95-2.29,3.25-.61,1.3-1.02,2.83-1.24,4.57h18.24v-.88Z"/>
    <path class="cls-5" d="m646.85,274.44c0,.53.03.98.09,1.34.06.36.18.64.37.86.19.21.46.37.82.46.36.09.84.14,1.44.14.65,0,1.24-.02,1.77-.07.53-.05,1.11-.13,1.75-.24l.49,4.47c-.4.14-.88.28-1.42.4-.54.12-1.11.23-1.72.33s-1.23.17-1.88.22c-.64.05-1.27.08-1.87.08-1.04,0-1.95-.12-2.72-.36-.78-.24-1.42-.62-1.92-1.13-.51-.51-.89-1.17-1.14-1.98-.25-.81-.38-1.78-.38-2.91v-50.57l6.33-.49v49.45Z"/>
    <path class="cls-5" d="m684.78,282.35c-.25-.48-.44-1.15-.59-2-.14-.85-.21-1.78-.21-2.78-.66.7-1.41,1.36-2.24,1.97-.83.61-1.73,1.15-2.71,1.6-.98.46-2.03.81-3.15,1.07-1.13.26-2.32.39-3.58.39-1.97,0-3.68-.24-5.13-.73-1.45-.49-2.69-1.16-3.72-2.02-1.03-.86-1.87-1.87-2.52-3.03-.65-1.16-1.16-2.41-1.52-3.75-.37-1.34-.62-2.74-.75-4.2-.14-1.46-.21-2.91-.21-4.36,0-3.36.43-6.31,1.3-8.85.87-2.54,2.08-4.66,3.65-6.36,1.57-1.7,3.44-2.98,5.62-3.84,2.18-.86,4.58-1.29,7.2-1.29,1.56,0,3,.12,4.32.36,1.31.24,2.43.6,3.36,1.08v-20.23l6.41-.41v56.97l-5.53.39Zm-.88-31.76c-1.02-.48-2.18-.86-3.49-1.12-1.31-.27-2.63-.4-3.96-.4-1.82,0-3.44.3-4.86.9-1.42.6-2.62,1.52-3.59,2.76-.98,1.24-1.72,2.81-2.23,4.71s-.76,4.14-.76,6.75c0,2.38.19,4.41.56,6.09s.93,3.05,1.69,4.12c.75,1.07,1.71,1.85,2.85,2.33,1.15.49,2.49.73,4.02.73,1.02,0,2.01-.14,2.98-.42.97-.28,1.88-.63,2.72-1.04.85-.42,1.61-.87,2.3-1.37.69-.49,1.28-.96,1.76-1.41v-22.64Z"/>
    <path class="cls-5" d="m747.65,255.24c0-.81-.08-1.56-.22-2.26-.15-.7-.41-1.31-.79-1.83-.38-.52-.89-.93-1.54-1.23-.65-.3-1.48-.45-2.48-.45-1.54,0-3.22.48-5.04,1.44-1.82.96-3.74,2.43-5.76,4.4v26.8h-6.23v-27.03c0-.82-.06-1.57-.19-2.26-.12-.68-.36-1.28-.71-1.78-.35-.5-.84-.89-1.46-1.16s-1.44-.41-2.44-.41c-.74,0-1.57.14-2.47.41-.91.27-1.85.68-2.84,1.22-.99.54-2.01,1.2-3.05,1.98-1.04.78-2.07,1.68-3.09,2.7v26.33h-6.31v-37.21l5.43-.55c.12.27.22.63.31,1.08.09.45.17.96.23,1.52.06.57.12,1.18.17,1.83.04.65.07,1.33.09,2.03,1.3-1.21,2.55-2.24,3.74-3.1,1.19-.85,2.35-1.55,3.49-2.09,1.13-.54,2.25-.93,3.36-1.17,1.11-.24,2.22-.36,3.34-.36,2.56,0,4.54.51,5.92,1.54,1.38,1.03,2.23,2.62,2.56,4.79,1.13-1.08,2.25-2.02,3.35-2.81,1.1-.79,2.19-1.45,3.27-1.97,1.08-.52,2.17-.91,3.26-1.16s2.2-.38,3.32-.38c1.76,0,3.23.21,4.4.64,1.18.43,2.12,1.06,2.83,1.9.71.84,1.21,1.88,1.51,3.12.3,1.24.45,2.69.45,4.33v28.01h-6.41v-26.88Z"/>
    <path class="cls-5" d="m795.09,277.24c.64,0,1.22-.02,1.76-.07.53-.05,1.12-.13,1.76-.24l.49,4.47c-.4.14-.86.28-1.38.4-.51.12-1.06.23-1.64.33-.58.1-1.18.17-1.8.22-.62.05-1.23.08-1.83.08-1.15,0-2.12-.11-2.91-.32-.79-.21-1.45-.54-1.96-.97-.51-.43-.91-.96-1.17-1.58-.27-.62-.44-1.35-.52-2.17-1.22,1.11-2.32,2.01-3.3,2.71-.98.7-1.93,1.24-2.86,1.64-.93.4-1.88.67-2.86.81-.98.14-2.08.21-3.3.21-1.34,0-2.61-.2-3.81-.61-1.2-.4-2.25-1.02-3.15-1.86-.91-.83-1.62-1.88-2.16-3.14-.53-1.26-.8-2.75-.8-4.47,0-.89.1-1.72.31-2.51.21-.79.6-1.53,1.17-2.22.57-.69,1.37-1.32,2.4-1.9,1.03-.58,2.37-1.1,4.02-1.57,1.65-.47,3.65-.88,6-1.22,2.34-.34,5.12-.62,8.34-.83v-7.27c0-2.04-.47-3.54-1.41-4.49-.94-.95-2.31-1.43-4.12-1.43-1.02,0-2.05.1-3.12.3-1.06.2-2.11.5-3.15.88-1.04.38-2.06.85-3.07,1.39-1,.54-1.97,1.15-2.89,1.83l-2.81-4.08c1.16-.85,2.34-1.6,3.55-2.28,1.21-.67,2.49-1.24,3.83-1.71,1.34-.47,2.77-.83,4.28-1.08,1.51-.25,3.14-.38,4.9-.38,3.32,0,5.86.9,7.61,2.7,1.75,1.8,2.63,4.39,2.63,7.79v19.84c0,.6.04,1.08.13,1.45.08.36.24.65.46.85.22.2.52.34.91.4.38.07.88.1,1.47.1Zm-9.36-10.72c-2.98.2-5.49.44-7.52.74-2.03.3-3.67.67-4.91,1.11-1.24.44-2.14.98-2.68,1.6-.54.62-.81,1.37-.81,2.23s.11,1.6.33,2.29c.22.69.57,1.28,1.04,1.78.47.5,1.06.88,1.77,1.14.71.27,1.55.4,2.53.4.7,0,1.46-.1,2.27-.31.81-.21,1.65-.53,2.53-.97.88-.44,1.78-1,2.7-1.69.92-.69,1.84-1.52,2.76-2.48v-5.84Z"/>
    <path class="cls-5" d="m821.62,282.04c-1.78.43-3.71.64-5.81.64-3.03,0-5.29-.72-6.76-2.15-1.47-1.43-2.21-3.7-2.21-6.82v-23.85l-5.04-.23.41-4.39,4.71-.25.9-11.99,5.51-.57v12.48h12.25l-.41,5.04h-11.84v23.2c0,.78.07,1.44.21,1.98.14.54.36.98.68,1.31.32.33.73.57,1.24.72.51.15,1.13.22,1.88.22,1.21,0,2.45-.14,3.71-.43,1.26-.29,2.64-.75,4.12-1.41l1.37,4.57c-1.5.85-3.13,1.48-4.91,1.91Z"/>
    <path class="cls-5" d="m859.46,279.86c-1.12.58-2.3,1.07-3.55,1.48s-2.57.72-3.96.94-2.88.32-4.46.32c-2.36,0-4.51-.31-6.46-.94s-3.63-1.62-5.03-2.99c-1.4-1.37-2.49-3.14-3.26-5.32-.78-2.18-1.16-4.83-1.16-7.96,0-3.46.42-6.52,1.26-9.16.84-2.64,2.04-4.86,3.59-6.64,1.56-1.78,3.44-3.13,5.65-4.04,2.21-.91,4.69-1.37,7.42-1.37,2.06,0,3.88.34,5.46,1.03s2.91,1.64,3.98,2.87,1.89,2.7,2.44,4.4c.55,1.71.83,3.58.83,5.62v1.26c0,.42,0,.87-.03,1.33-.02.46-.04.96-.07,1.49-.03.53-.07,1.12-.14,1.76h-24.08c0,2.38.22,4.43.66,6.13.44,1.71,1.12,3.11,2.04,4.2s2.07,1.9,3.47,2.41c1.39.51,3.04.77,4.94.77s3.93-.34,5.86-1.02c1.93-.68,3.89-1.64,5.9-2.89l1.93,4.32c-1.04.74-2.12,1.4-3.24,1.98Zm-3.01-21.26c0-1.5-.16-2.83-.49-4.01-.33-1.18-.8-2.18-1.44-3-.63-.82-1.42-1.45-2.35-1.88s-2.02-.64-3.24-.64c-1.45,0-2.77.21-3.98.64s-2.28,1.08-3.2,1.94c-.92.87-1.69,1.95-2.29,3.25-.61,1.3-1.02,2.83-1.24,4.57h18.24v-.88Z"/>
    <path class="cls-5" d="m891.93,249.95c-.3-.03-.56-.04-.78-.05-.22,0-.42-.01-.6-.02-.18,0-.34,0-.49,0h-.46c-.64,0-1.21.04-1.73.11-.51.07-1.01.23-1.47.47-.47.24-.94.6-1.42,1.07-.48.48-1,1.11-1.57,1.91-.57.8-1.21,1.79-1.91,2.97-.7,1.18-1.52,2.6-2.46,4.27v21.45h-6.41v-37.21l5.06-.55c.14.3.27.78.37,1.44.1.66.2,1.43.28,2.32.08.89.15,1.88.21,2.95.05,1.07.08,2.17.1,3.29.68-1.43,1.31-2.68,1.89-3.73s1.15-1.96,1.68-2.71c.53-.75,1.05-1.37,1.54-1.86.49-.48,1-.86,1.51-1.14.51-.28,1.05-.47,1.6-.58.55-.1,1.14-.16,1.77-.16.77,0,1.5.05,2.19.16.69.1,1.24.21,1.64.33l-.55,5.27Z"/>
    <path class="cls-5" d="m899.02,236.44v-6.15h7.15v6.15h-7.15Zm.41,45.68v-37.21l6.41-.39v37.6h-6.41Z"/>
    <path class="cls-5" d="m947.1,277.24c.64,0,1.22-.02,1.76-.07.53-.05,1.12-.13,1.76-.24l.49,4.47c-.4.14-.86.28-1.38.4-.51.12-1.06.23-1.64.33-.58.1-1.18.17-1.8.22-.62.05-1.23.08-1.83.08-1.15,0-2.12-.11-2.91-.32-.79-.21-1.45-.54-1.96-.97-.51-.43-.91-.96-1.17-1.58-.27-.62-.44-1.35-.52-2.17-1.22,1.11-2.32,2.01-3.3,2.71-.98.7-1.93,1.24-2.86,1.64-.93.4-1.88.67-2.86.81-.98.14-2.08.21-3.3.21-1.34,0-2.61-.2-3.81-.61-1.2-.4-2.25-1.02-3.15-1.86-.91-.83-1.62-1.88-2.16-3.14-.53-1.26-.8-2.75-.8-4.47,0-.89.1-1.72.31-2.51.21-.79.6-1.53,1.17-2.22.57-.69,1.37-1.32,2.4-1.9,1.03-.58,2.37-1.1,4.02-1.57,1.65-.47,3.65-.88,6-1.22,2.34-.34,5.12-.62,8.34-.83v-7.27c0-2.04-.47-3.54-1.41-4.49-.94-.95-2.31-1.43-4.12-1.43-1.02,0-2.05.1-3.12.3-1.06.2-2.11.5-3.15.88-1.04.38-2.06.85-3.07,1.39-1,.54-1.97,1.15-2.89,1.83l-2.81-4.08c1.16-.85,2.34-1.6,3.55-2.28,1.21-.67,2.49-1.24,3.83-1.71,1.34-.47,2.77-.83,4.28-1.08,1.51-.25,3.14-.38,4.9-.38,3.32,0,5.86.9,7.61,2.7,1.75,1.8,2.63,4.39,2.63,7.79v19.84c0,.6.04,1.08.13,1.45.08.36.24.65.46.85.22.2.52.34.91.4.38.07.88.1,1.47.1Zm-9.36-10.72c-2.98.2-5.49.44-7.52.74-2.03.3-3.67.67-4.91,1.11-1.24.44-2.14.98-2.68,1.6-.54.62-.81,1.37-.81,2.23s.11,1.6.33,2.29c.22.69.57,1.28,1.04,1.78.47.5,1.06.88,1.77,1.14.71.27,1.55.4,2.53.4.7,0,1.46-.1,2.27-.31.81-.21,1.65-.53,2.53-.97.88-.44,1.78-1,2.7-1.69.92-.69,1.84-1.52,2.76-2.48v-5.84Z"/>
    <path class="cls-5" d="m986.87,277.24c.64,0,1.22-.02,1.76-.07.53-.05,1.12-.13,1.76-.24l.49,4.47c-.4.14-.86.28-1.38.4-.51.12-1.06.23-1.64.33-.58.1-1.18.17-1.8.22-.62.05-1.23.08-1.83.08-1.15,0-2.12-.11-2.91-.32-.79-.21-1.45-.54-1.96-.97-.51-.43-.91-.96-1.17-1.58-.27-.62-.44-1.35-.52-2.17-1.22,1.11-2.32,2.01-3.3,2.71-.98.7-1.93,1.24-2.86,1.64-.93.4-1.88.67-2.86.81-.98.14-2.08.21-3.3.21-1.34,0-2.61-.2-3.81-.61-1.2-.4-2.25-1.02-3.15-1.86-.91-.83-1.62-1.88-2.16-3.14-.53-1.26-.8-2.75-.8-4.47,0-.89.1-1.72.31-2.51.21-.79.6-1.53,1.17-2.22.57-.69,1.37-1.32,2.4-1.9,1.03-.58,2.37-1.1,4.02-1.57,1.65-.47,3.65-.88,6-1.22,2.34-.34,5.12-.62,8.34-.83v-7.27c0-2.04-.47-3.54-1.41-4.49-.94-.95-2.31-1.43-4.12-1.43-1.02,0-2.05.1-3.12.3-1.06.2-2.11.5-3.15.88-1.04.38-2.06.85-3.07,1.39-1,.54-1.97,1.15-2.89,1.83l-2.81-4.08c1.16-.85,2.34-1.6,3.55-2.28,1.21-.67,2.49-1.24,3.83-1.71,1.34-.47,2.77-.83,4.28-1.08,1.51-.25,3.14-.38,4.9-.38,3.32,0,5.86.9,7.61,2.7,1.75,1.8,2.63,4.39,2.63,7.79v19.84c0,.6.04,1.08.13,1.45.08.36.24.65.46.85.22.2.52.34.91.4.38.07.88.1,1.47.1Zm-9.36-10.72c-2.98.2-5.49.44-7.52.74-2.03.3-3.67.67-4.91,1.11-1.24.44-2.14.98-2.68,1.6-.54.62-.81,1.37-.81,2.23s.11,1.6.33,2.29c.22.69.57,1.28,1.04,1.78.47.5,1.06.88,1.77,1.14.71.27,1.55.4,2.53.4.7,0,1.46-.1,2.27-.31.81-.21,1.65-.53,2.53-.97.88-.44,1.78-1,2.7-1.69.92-.69,1.84-1.52,2.76-2.48v-5.84Z"/>
    <path class="cls-5" d="m1004.15,274.44c0,.53.03.98.09,1.34.06.36.18.64.37.86.19.21.46.37.82.46.36.09.84.14,1.44.14.65,0,1.24-.02,1.77-.07.53-.05,1.11-.13,1.75-.24l.49,4.47c-.4.14-.88.28-1.42.4-.54.12-1.11.23-1.72.33s-1.23.17-1.88.22c-.64.05-1.27.08-1.87.08-1.04,0-1.95-.12-2.72-.36-.78-.24-1.42-.62-1.92-1.13-.51-.51-.89-1.17-1.14-1.98-.25-.81-.38-1.78-.38-2.91v-50.57l6.33-.49v49.45Z"/>
  </g>
</svg>