<?xml version="1.0" encoding="utf-8"?>
<!-- Generator: Adobe Illustrator 27.4.1, SVG Export Plug-In . SVG Version: 6.00 Build 0)  -->
<svg version="1.1" id="Laag_3" xmlns="http://www.w3.org/2000/svg" xmlns:xlink="http://www.w3.org/1999/xlink" x="0px" y="0px"
	 viewBox="0 0 558.56 220.55" style="enable-background:new 0 0 558.56 220.55;" xml:space="preserve">
<style type="text/css">
	.st0{fill:#00889C;}
	.st1{fill:#004179;}
	.st2{fill:none;stroke:#00889C;stroke-width:2.6972;stroke-miterlimit:10;}
</style>
<g>
	<path class="st0" d="M270.2,75.14h-11.99v33.77h-4.56V75.14h-12.54l0.27-3.57h29.09L270.2,75.14z"/>
	<path class="st0" d="M289.34,109.34c-10.01,0-15.67-5.17-15.67-18.53c0-11.71,6.43-19.63,16.77-19.63
		c10.01,0,15.67,5.28,15.67,18.42C306.11,100.32,300.56,109.34,289.34,109.34z M290.22,74.86c-7.42,0-11.77,6.27-11.77,15.56
		c0,9.95,3.24,15.18,11.16,15.18c7.15,0,11.66-5.77,11.66-15.73C301.27,80.91,298.41,74.86,290.22,74.86z"/>
	<path class="st0" d="M322.5,96.47c-1.59,0-3.68-0.17-4.62-0.38v12.81h-4.56V71.56h10.72c8.03,0,11.27,4.62,11.27,11.11
		C335.32,90.54,330.75,96.47,322.5,96.47z M323.27,75.14h-5.39v17.38c0.83,0.22,3.19,0.38,4.78,0.38c5.99,0,8.14-4.56,8.14-9.79
		C330.81,78.71,328.88,75.14,323.27,75.14z"/>
	<path class="st0" d="M353.58,105.33l6.77,0.38v3.2h-20.46v-3.2l8.97-0.38V75.52h-8.37v-3.36l13.09-0.71V105.33z"/>
	<path class="st0" d="M392.84,89.59c0,1.82-0.11,3.57-0.34,5.25c-0.23,1.68-0.58,3.26-1.07,4.73c-0.48,1.47-1.11,2.81-1.87,4.01
		s-1.67,2.24-2.74,3.1s-2.29,1.53-3.67,2c-1.38,0.47-2.94,0.71-4.67,0.71c-2.26,0-4.22-0.34-5.9-1.03s-3.06-1.77-4.17-3.26
		c-1.11-1.49-1.93-3.41-2.48-5.77c-0.55-2.36-0.82-5.21-0.82-8.55c0-1.9,0.12-3.7,0.37-5.41s0.62-3.3,1.13-4.76
		c0.51-1.46,1.15-2.78,1.93-3.96c0.78-1.18,1.7-2.18,2.77-3.01c1.07-0.83,2.29-1.47,3.65-1.92s2.88-0.67,4.56-0.67
		c2.3,0,4.29,0.37,5.96,1.1c1.67,0.73,3.05,1.86,4.14,3.38c1.09,1.52,1.9,3.44,2.42,5.77C392.58,83.65,392.84,86.41,392.84,89.59z
		 M388.12,89.88c0-2.72-0.2-5.04-0.6-6.94c-0.4-1.91-0.98-3.46-1.73-4.65c-0.76-1.2-1.68-2.06-2.78-2.6
		c-1.1-0.54-2.35-0.81-3.75-0.81c-1.62,0-3.02,0.34-4.2,1.01s-2.16,1.67-2.93,2.99c-0.77,1.32-1.34,2.94-1.71,4.88
		c-0.37,1.94-0.56,4.17-0.56,6.68c0,2.77,0.18,5.11,0.54,7.03s0.9,3.48,1.64,4.68s1.67,2.07,2.79,2.61s2.46,0.8,4,0.8
		c1.43,0,2.72-0.29,3.87-0.87s2.12-1.5,2.93-2.76s1.42-2.88,1.85-4.86C387.9,95.07,388.12,92.68,388.12,89.88z"/>
	<path class="st0" d="M426.06,108.9L406.1,81.02c-0.5-0.66-1.04-1.71-1.27-2.42v30.3h-4.23V71.56h4.18l19.52,27.61
		c0.77,1.1,1.38,2.14,1.59,2.97V71.56h4.23v37.34H426.06z"/>
	<path class="st0" d="M438.99,108.9V71.56h4.56v33.77h16.83l0.33,3.57H438.99z"/>
	<path class="st0" d="M269.63,164.9v-18.48c0-2.2-0.77-3.96-3.52-3.96c-2.14,0-5.39,1.54-8.19,4.4v18.04h-4.4v-38.93l4.4-0.33v17.71
		c3.57-3.36,6.71-4.56,9.79-4.56c4.73,0,6.32,2.36,6.32,6.98v19.14H269.63z"/>
	<path class="st0" d="M291.69,165.29c-6.49,0-10.94-3.3-10.94-11.88c0-9.51,4.51-14.63,11.99-14.63c5.72,0,9.07,4.01,9.07,9.62
		c0,1.16,0,2.47-0.17,4.23h-16.55c0,6.43,2.42,9.13,7.64,9.13c2.69,0,5.33-1.04,8.08-2.75l1.32,2.97
		C299.28,164.02,296.03,165.29,291.69,165.29z M297.79,148.74c0-4.12-2.25-6.6-5.72-6.6c-3.96,0-6.32,2.69-6.76,7.2h12.48V148.74z"
		/>
	<path class="st0" d="M313.25,159.79c0,1.48,0.22,1.92,1.87,1.92c0.88,0,1.54-0.05,2.42-0.22l0.27,3.08
		c-1.1,0.38-3.08,0.71-4.73,0.71c-2.86,0-4.23-1.26-4.23-4.4v-34.92l4.4-0.33V159.79z"/>
	<path class="st0" d="M332.77,165.29c-2.09,0-3.96-0.38-5.33-1.15v11.49l-4.4,0.22v-36.51l3.63-0.39c0.33,0.77,0.55,2.15,0.6,3.41
		c2.14-2.2,5.17-3.57,8.3-3.57c6.1,0,9.57,3.96,9.57,12.48C345.15,159.02,341.3,165.29,332.77,165.29z M334.31,142.41
		c-2.75,0-5.33,1.65-6.87,3.35v14.9c1.43,0.71,3.52,1.43,5.5,1.43c4.95,0,7.64-3.85,7.64-10.5
		C340.58,146.1,338.71,142.41,334.31,142.41z"/>
</g>
<g>
	<g>
		<path class="st0" d="M52.8,70.33l-0.83,8.3h0.85l2.88-3.69h1.44l-3.27,4.23l2.84,4.34h-1.66l-2.45-3.86h-0.72l-0.37,3.86h-1.37
			l1.31-13.06L52.8,70.33z"/>
		<path class="st0" d="M64.46,83.47l-1.33,0.04l-0.04-1.81c-1.64,1.59-2.14,1.88-3.01,1.88c-1.05,0-1.9-0.79-1.9-2.93
			c0-3.67,1.51-5.87,4-5.87c0.81,0,1.9,0.17,2.77,0.42l-0.53,5.5L64.46,83.47z M63.54,76.13c-0.48-0.11-1.07-0.2-1.51-0.2
			c-1.61,0-2.44,1.66-2.44,4.58c0,1.31,0.39,1.81,0.92,1.81c0.5,0,1.02-0.41,2.6-1.92L63.54,76.13z"/>
		<path class="st0" d="M70.86,74.78c0.46,0,0.94,0.05,1.44,0.17l0.46-4.52l1.35-0.09L73.1,80.7l0.04,2.77l-1.33,0.04l-0.04-1.81
			c-1.64,1.59-2.14,1.88-3.01,1.88c-1.05,0-1.9-0.79-1.9-2.93C66.86,76.97,68.37,74.78,70.86,74.78z M69.18,82.31
			c0.5,0,1.02-0.41,2.6-1.92l0.43-4.26c-0.48-0.11-1.07-0.2-1.51-0.2c-1.61,0-2.44,1.66-2.44,4.58
			C68.26,81.81,68.65,82.31,69.18,82.31z"/>
		<path class="st0" d="M81.8,83.47l-1.33,0.04l-0.04-1.81c-1.64,1.59-2.14,1.88-3.01,1.88c-1.05,0-1.9-0.79-1.9-2.93
			c0-3.67,1.51-5.87,4-5.87c0.81,0,1.9,0.17,2.77,0.42l-0.53,5.5L81.8,83.47z M80.88,76.13c-0.48-0.11-1.07-0.2-1.51-0.2
			c-1.61,0-2.44,1.66-2.44,4.58c0,1.31,0.39,1.81,0.92,1.81c0.5,0,1.02-0.41,2.6-1.92L80.88,76.13z"/>
		<path class="st0" d="M88.6,76.13c-0.63-0.18-1.14-0.28-1.7-0.28c-0.81,0-1.14,0.48-1.14,1.05c0,0.61,0.17,0.96,1.03,1.7
			c1.62,1.37,1.88,1.85,1.88,2.71c0,1.37-0.96,2.31-2.6,2.31c-0.87,0-1.73-0.2-2.45-0.65L84,81.9c0.72,0.35,1.51,0.55,2.14,0.55
			c0.83,0,1.22-0.41,1.22-1c0-0.57-0.18-0.89-1.29-1.75c-1.27-1-1.64-1.7-1.64-2.71c0-1.14,0.81-2.25,2.45-2.25
			c0.81,0,1.4,0.09,1.99,0.31L88.6,76.13z"/>
		<path class="st0" d="M92.89,74.94h2.18l-0.13,1.09H92.8l-0.46,4.61c-0.05,0.46-0.05,0.92-0.05,1.2c0,0.44,0.16,0.54,0.52,0.54
			c0.3,0,0.89-0.13,1.68-0.41l0.24,1.03c-0.96,0.42-1.72,0.59-2.47,0.59c-0.92,0-1.4-0.48-1.4-1.44c0-0.33,0.02-0.7,0.07-1.31
			l0.5-4.83l-1.24-0.04l0.09-0.94l1.27-0.09l0.44-2.95l1.14-0.04L92.89,74.94z"/>
		<path class="st0" d="M97.67,79.5c-0.02,0.22-0.02,0.42-0.02,0.57c0,1.81,0.57,2.36,1.59,2.36c0.64,0,1.49-0.18,2.86-0.89
			l0.39,1.05c-1.44,0.74-2.44,1.01-3.53,1.01c-1.72,0-2.71-1.05-2.71-3.36c0-3.28,1.37-5.55,3.71-5.55c1.59,0,2.33,0.83,2.33,2.29
			c0,0.46-0.11,1.49-0.3,2.25L97.67,79.5z M100.88,78.25c0.07-0.41,0.11-0.9,0.11-1.13c0-0.9-0.41-1.33-1.2-1.33
			c-1.07,0-1.74,0.98-1.99,2.66L100.88,78.25z"/>
		<path class="st0" d="M105.72,83.51h-1.38l0.85-8.58h1.2l-0.16,2.18c1.4-2.07,1.64-2.31,2.38-2.31c0.39,0,0.68,0.05,0.96,0.13
			l-0.22,1.24c-0.26-0.02-0.46-0.04-0.68-0.04c-0.52,0-0.74,0.28-2.51,2.69L105.72,83.51z"/>
	</g>
	<polygon class="st0" points="119.73,128.69 136.52,71.96 123.48,71.96 100.41,149.86 	"/>
	<polygon class="st1" points="139.07,107.41 130.28,117.05 156.09,164.18 171.21,164.18 	"/>
</g>
<line class="st2" x1="204.24" y1="60.69" x2="204.24" y2="174.35"/>
</svg>
