<?xml version="1.0" encoding="UTF-8"?>
<svg id="Laag_1" data-name="Laag 1" xmlns="http://www.w3.org/2000/svg" xmlns:xlink="http://www.w3.org/1999/xlink" viewBox="0 0 1222 480.66">
  <defs>
    <style>
      .cls-1 {
        fill: #4a4949;
      }

      .cls-1, .cls-2, .cls-3, .cls-4, .cls-5, .cls-6, .cls-7, .cls-8 {
        stroke-width: 0px;
      }

      .cls-2 {
        fill: url(#Naamloos_verloop_19);
      }

      .cls-3 {
        fill: url(#Naamloos_verloop_9);
      }

      .cls-4 {
        fill: #adb4d2;
      }

      .cls-5 {
        fill: #fff;
      }

      .cls-6 {
        fill: url(#radial-gradient);
      }

      .cls-7 {
        fill: #008296;
      }

      .cls-8 {
        fill: #e7efff;
      }
    </style>
    <linearGradient id="Naamloos_verloop_9" data-name="Naamloos verloop 9" x1="636.16" y1="407.74" x2="636.16" y2="78.67" gradientUnits="userSpaceOnUse">
      <stop offset="0" stop-color="#008296"/>
      <stop offset="1" stop-color="#008296" stop-opacity=".3"/>
    </linearGradient>
    <linearGradient id="Naamloos_verloop_19" data-name="Naamloos verloop 19" x1="636.16" y1="389.62" x2="636.16" y2="96.79" gradientUnits="userSpaceOnUse">
      <stop offset="0" stop-color="#94e0fe" stop-opacity=".3"/>
      <stop offset="1" stop-color="#008296"/>
    </linearGradient>
    <radialGradient id="radial-gradient" cx="51.02" cy="-302.8" fx="51.02" fy="-302.8" r="801.22" gradientUnits="userSpaceOnUse">
      <stop offset="0" stop-color="#3a4a92"/>
      <stop offset=".02" stop-color="#3f4e94"/>
      <stop offset=".29" stop-color="#828cba"/>
      <stop offset=".53" stop-color="#b8bdd7"/>
      <stop offset=".73" stop-color="#dee1ed"/>
      <stop offset=".9" stop-color="#f6f7fa"/>
      <stop offset="1" stop-color="#fff"/>
    </radialGradient>
  </defs>
  <g>
    <path class="cls-3" d="m233.13,407.74c-90.72,0-164.53-73.81-164.53-164.53S142.4,78.67,233.13,78.67h806.06c90.72,0,164.53,73.81,164.53,164.53s-73.81,164.53-164.53,164.53H233.13Z"/>
    <path class="cls-2" d="m233.13,389.62c-80.74,0-146.42-65.68-146.42-146.42S152.39,96.79,233.13,96.79h806.06c80.74,0,146.42,65.68,146.42,146.42s-65.68,146.42-146.42,146.42H233.13Z"/>
    <g>
      <circle class="cls-4" cx="236.9" cy="242.02" r="221.39" transform="translate(-101.74 238.4) rotate(-45)"/>
      <circle class="cls-8" cx="236.9" cy="234.86" r="221.39"/>
      <circle class="cls-6" cx="236.9" cy="234.86" r="199.75"/>
    </g>
  </g>
  <g>
    <path class="cls-7" d="m141.33,221.63c-.73,3-1.9,5.97-2.09,9-.42,6.69-.37,13.41-.48,20.12-.08,5-3.27,8.51-7.81,8.53-4.57.03-7.93-3.65-7.86-8.71.1-7.24-.02-14.5.51-21.71.28-3.78,1.68-7.48,2.68-11.19,1.4-5.19,2.91-10.34,4.34-15.52.94-3.41,3.06-5.49,6.58-6.11,3.06-.53,6.12-1.11,9.42-1.71.72,4.42,1.76,8.62,2.02,12.88.41,6.51,4.94,10.57,8.25,15.88,2.56-3.68,5.29-6.78,7.01-10.37,1.27-2.65,1.23-5.93,1.74-8.93.41-2.42.93-4.83,1.13-7.27.16-1.87.94-2.06,2.58-1.87,6.42.75,12.44,2.79,18.1,5.75,5.73,3,11.73,3.87,18.06,3.68,3.58-.11,7.17.02,10.76.09,5.05.1,8.33,3.28,8.28,7.98-.05,4.66-3.44,7.75-8.54,7.68-7.37-.1-14.75-.16-22.11-.47-1.91-.08-3.83-.96-5.66-1.67-2.83-1.1-5.6-2.37-8.91-3.78-.56,7.69-1.31,15.04-1.58,22.41-.27,7.35-.06,14.72-.06,22.17-3.07-.77-5.62-1.65-8.25-2.03-12.36-1.79-23.99,10.4-21.78,22.68.6,3.32,1.8,6.36,3.75,9.12,1.71,2.43,1.13,4.79-1.46,6.12-5.22,2.7-9.51,6.49-13.25,11.48-.06-.94-.14-1.56-.14-2.17,0-12.96.03-25.91-.03-38.87,0-1.38.47-2.12,1.56-2.87,3.71-2.54,5.56-6.13,5.65-10.63.14-7.57.29-15.14.4-22.71.04-2.58-.65-4.94-2.16-7.01l-.68.02Z"/>
    <path class="cls-1" d="m185.62,222.09c2.25.73,4.23,1.28,6.12,2.05.44.18.82,1.08.83,1.66.08,3.39.03,6.78.04,10.17,0,.71.06,1.42.1,2.37h2.29c45.19,0,90.38-.01,135.57.04,2,0,2.56-.48,2.55-2.52-.07-31.37-.06-62.74-.01-94.11,0-1.76-.38-2.37-2.29-2.37-45.32.06-90.65.04-135.97.04-.65,0-1.3.06-2.13.1v57.88c-2.39-1.07-4.52-1.93-6.53-3-.41-.22-.54-1.25-.55-1.91-.03-8.51-.02-17.01-.02-25.52,0-9.9,0-19.8,0-29.71,0-3.67,1.08-4.75,4.75-4.75,48.51,0,97.03,0,145.54,0,2.76,0,4.02,1.18,4.05,3.99.06,4.52.02,9.04.02,13.56,0,29.91,0,59.81,0,89.72,0,.86.01,1.74-.11,2.58-.23,1.55-1.19,2.51-2.73,2.76-.84.14-1.72.12-2.58.12-47.85,0-95.7,0-143.55,0-4.48,0-5.39-.91-5.39-5.34,0-5.9,0-11.8,0-17.82Z"/>
    <path class="cls-1" d="m284.11,333.04c-.99-14.3,3.68-25.82,16.27-32.96,11.52-6.54,23.3-5.94,34.23,1.57,10.92,7.5,14.74,18.44,13.8,31.46h-12.02c-.29-3.32-.37-6.63-.93-9.86-.57-3.22-2.18-6.04-4.78-8.79v18.59h-28.62v-18.1c-5.45,4.96-6.04,11.34-5.65,18.1h-12.3Z"/>
    <path class="cls-1" d="m181.7,314.98v18.14h-28.48v-18.77c-5.39,5.56-5.92,12-5.55,18.75h-12.1c-1.6-12.1,2.77-24.03,13.16-31.21,11.4-7.88,23.46-8.35,35.45-1.37,11.2,6.53,17.29,19.77,15.39,32.57h-12.22c.33-6.65-.14-13.14-5.64-18.11Z"/>
    <path class="cls-1" d="m256.2,333.11h-28.46v-18.17c-5.5,4.95-6.12,11.34-5.72,18.13h-12.17c-1.03-12.48,2.43-23.17,12.69-30.73,11.03-8.13,23.08-9,35.02-2.35,12.72,7.09,17.42,18.69,16.4,33.06h-11.89c-.29-3.2-.36-6.51-.94-9.73-.59-3.27-2.24-6.14-4.93-8.93v18.72Z"/>
    <path class="cls-1" d="m229.33,208.2c-1.23-1.97-2.32-3.7-3.55-5.66,2.82-1.94,5.71-4.02,8.69-5.95,1.66-1.08,2.48-2.11,2.27-4.4-.58-6.39,4.02-11.36,10.32-11.69,6.42-.34,11.3,4.13,11.77,10.64.05.68.64,1.62,1.23,1.9,3,1.42,6.05,2.73,9.16,3.89.65.25,1.8-.02,2.37-.48,2.88-2.32,6.06-3.13,9.69-2.58.66.1,1.71-.27,2.1-.78,4.95-6.58,9.84-13.21,14.65-19.9.39-.54.29-1.76-.04-2.44-3.52-7.23.8-15.38,8.75-16.21,4.57-.47,8.26,1.33,10.62,5.27,2.39,3.99,2.31,8.16-.36,12.02-2.6,3.77-6.31,5.36-10.88,4.63-1.3-.21-2.16-.08-3.02,1.12-4.58,6.36-9.26,12.65-13.91,18.96-.64.86-1.18,1.6-.53,2.84,2.34,4.43,2.01,8.78-1.23,12.61-3.14,3.7-7.28,4.72-11.91,3.36-4.31-1.27-7.28-5.19-7.63-10.17-.08-1.21-.49-1.74-1.55-2.16-2.84-1.13-5.64-2.33-8.43-3.58-1.14-.51-1.95-.48-2.99.42-3.81,3.28-8.38,3.69-12.75,1.19-1.04-.59-1.74-.54-2.66.11-3.36,2.37-6.76,4.68-10.17,7.03Z"/>
    <path class="cls-1" d="m167.35,290.51c-7.85-.05-14.11-6.41-14.09-14.28.03-7.83,6.45-14.23,14.24-14.17,7.94.06,14.35,6.55,14.22,14.42-.12,7.85-6.51,14.09-14.37,14.04Z"/>
    <path class="cls-1" d="m241.78,290.51c-7.84-.02-14.17-6.39-14.14-14.24.03-7.93,6.47-14.29,14.4-14.21,7.82.08,14.1,6.51,14.03,14.37-.06,7.86-6.4,14.11-14.28,14.08Z"/>
    <path class="cls-1" d="m316.3,290.51c-7.86.03-14.21-6.24-14.28-14.1-.07-7.91,6.37-14.4,14.26-14.36,7.8.04,14.2,6.45,14.21,14.25,0,7.83-6.34,14.19-14.19,14.22Z"/>
    <path class="cls-1" d="m142.89,175.99c0-7.85,6.17-14.07,13.97-14.09,7.81-.02,14.17,6.35,14.15,14.19-.02,7.75-6.3,13.93-14.15,13.92-7.87,0-13.96-6.12-13.96-14.02Z"/>
    <path class="cls-7" d="m156.99,218.37c-1.23-1.83-2.24-3.22-3.12-4.7-.3-.51-.41-1.24-.34-1.85.45-4.21,1.01-8.41,1.41-12.63.09-.99-.27-2.03-.45-3.04-.06-.32-.34-.62-.33-.92.01-.4.19-1.15.32-1.15,1.6-.07,3.21-.06,4.81.03.15,0,.48.86.35,1.12-2.04,3.77-.05,7.53,0,11.29.02,1.51.34,3.03.6,4.53.53,3.09-2.06,4.67-3.25,7.32Z"/>
  </g>
  <g>
    <path class="cls-5" d="m564.97,182.66h-17.44v49.12h-6.64v-49.12h-18.24l.39-5.2h42.32l-.39,5.2Z"/>
    <path class="cls-5" d="m587.7,199.62c-.3-.03-.56-.04-.78-.05-.22,0-.42-.01-.6-.02-.18,0-.34,0-.49,0h-.46c-.64,0-1.21.04-1.73.11-.51.07-1.01.23-1.47.47-.47.24-.94.6-1.42,1.07s-1,1.11-1.57,1.91c-.57.8-1.21,1.79-1.91,2.97-.7,1.18-1.52,2.6-2.46,4.27v21.45h-6.41v-37.21l5.06-.55c.14.3.27.78.37,1.44.1.66.2,1.43.28,2.32.08.89.15,1.88.21,2.95s.08,2.17.1,3.29c.68-1.43,1.31-2.68,1.89-3.73s1.15-1.96,1.68-2.71c.53-.75,1.05-1.37,1.54-1.86.49-.48,1-.86,1.51-1.14.51-.28,1.05-.47,1.6-.58.55-.1,1.14-.16,1.77-.16.77,0,1.5.05,2.19.16.69.1,1.24.21,1.64.33l-.55,5.27Z"/>
    <path class="cls-5" d="m623.84,226.9c.64,0,1.22-.02,1.76-.07.53-.05,1.12-.13,1.76-.24l.49,4.47c-.4.14-.86.28-1.38.4-.51.12-1.06.23-1.64.33-.58.1-1.18.17-1.8.22-.62.05-1.23.08-1.83.08-1.15,0-2.12-.11-2.91-.32-.79-.21-1.45-.54-1.96-.97-.51-.43-.91-.96-1.17-1.58-.27-.62-.44-1.35-.52-2.17-1.22,1.11-2.32,2.01-3.3,2.71-.98.7-1.93,1.24-2.86,1.64-.93.4-1.88.67-2.86.81-.98.14-2.08.21-3.3.21-1.34,0-2.61-.2-3.81-.61-1.2-.4-2.25-1.02-3.15-1.86-.91-.83-1.62-1.88-2.16-3.14-.53-1.26-.8-2.75-.8-4.47,0-.89.1-1.72.31-2.51.21-.79.6-1.53,1.17-2.22.57-.69,1.37-1.32,2.4-1.9,1.03-.58,2.37-1.1,4.02-1.57,1.65-.47,3.65-.88,6-1.22,2.34-.34,5.12-.62,8.34-.83v-7.27c0-2.04-.47-3.54-1.41-4.49-.94-.95-2.31-1.43-4.12-1.43-1.02,0-2.05.1-3.12.3-1.06.2-2.11.5-3.15.88-1.04.38-2.06.85-3.07,1.39-1,.54-1.97,1.15-2.89,1.83l-2.81-4.08c1.16-.85,2.34-1.6,3.55-2.28,1.21-.67,2.49-1.24,3.83-1.71,1.34-.47,2.77-.83,4.28-1.08,1.51-.25,3.14-.38,4.9-.38,3.32,0,5.86.9,7.61,2.7,1.75,1.8,2.63,4.39,2.63,7.79v19.84c0,.6.04,1.08.13,1.45.08.36.24.65.46.85.22.2.52.34.91.4.38.07.88.1,1.47.1Zm-9.36-10.72c-2.98.2-5.49.44-7.52.74-2.03.3-3.67.67-4.91,1.11-1.24.44-2.14.98-2.68,1.6-.54.62-.81,1.37-.81,2.23s.11,1.6.33,2.29c.22.69.57,1.28,1.04,1.78.47.5,1.06.88,1.77,1.14.71.27,1.55.4,2.53.4.7,0,1.46-.1,2.27-.31.81-.21,1.65-.53,2.53-.97.88-.44,1.78-1,2.7-1.69.92-.69,1.84-1.52,2.76-2.48v-5.84Z"/>
    <path class="cls-5" d="m634.56,186.1v-6.15h7.15v6.15h-7.15Zm.41,45.68v-37.21l6.41-.39v37.6h-6.41Z"/>
    <path class="cls-5" d="m677.37,231.78v-26.88c0-.81-.07-1.56-.22-2.26-.15-.7-.41-1.31-.79-1.83-.38-.52-.88-.93-1.52-1.23-.64-.3-1.44-.45-2.42-.45-.78,0-1.65.14-2.6.42-.96.28-1.96.69-3,1.23-1.05.54-2.11,1.21-3.2,2-1.09.79-2.15,1.71-3.19,2.75v26.23h-6.41v-37.21l5.45-.47c.12.26.23.61.33,1.05.1.44.19.95.26,1.51s.13,1.18.19,1.83c.05.65.08,1.32.1,1.99,1.27-1.2,2.53-2.22,3.76-3.07,1.23-.85,2.44-1.54,3.63-2.08,1.19-.54,2.36-.94,3.51-1.19s2.29-.38,3.41-.38c1.72,0,3.16.21,4.34.64s2.12,1.07,2.84,1.92c.72.85,1.23,1.91,1.54,3.18.31,1.27.47,2.74.47,4.42v27.83h-6.46Z"/>
    <path class="cls-5" d="m695.93,186.1v-6.15h7.15v6.15h-7.15Zm.41,45.68v-37.21l6.41-.39v37.6h-6.41Z"/>
    <path class="cls-5" d="m738.74,231.78v-26.88c0-.81-.07-1.56-.22-2.26-.15-.7-.41-1.31-.79-1.83-.38-.52-.88-.93-1.52-1.23-.64-.3-1.44-.45-2.42-.45-.78,0-1.65.14-2.6.42-.96.28-1.96.69-3,1.23-1.05.54-2.11,1.21-3.2,2-1.09.79-2.15,1.71-3.19,2.75v26.23h-6.41v-37.21l5.45-.47c.12.26.23.61.33,1.05.1.44.19.95.26,1.51s.13,1.18.19,1.83c.05.65.08,1.32.1,1.99,1.27-1.2,2.53-2.22,3.76-3.07,1.23-.85,2.44-1.54,3.63-2.08,1.19-.54,2.36-.94,3.51-1.19s2.29-.38,3.41-.38c1.72,0,3.16.21,4.34.64s2.12,1.07,2.84,1.92c.72.85,1.23,1.91,1.54,3.18.31,1.27.47,2.74.47,4.42v27.83h-6.46Z"/>
    <path class="cls-5" d="m791.3,195.07c-.85-.08-1.69-.15-2.52-.21-.83-.06-1.52-.1-2.05-.1s-.97.06-1.34.18-.71.33-1.01.64c-.3.31-.59.74-.88,1.27-.29.53-.6,1.22-.94,2.07.42.42.8.93,1.14,1.53.34.61.64,1.26.89,1.95.25.7.44,1.41.58,2.15.14.74.21,1.44.21,2.12,0,2.08-.35,3.96-1.05,5.62s-1.72,3.07-3.05,4.23c-1.33,1.16-2.95,2.05-4.87,2.67-1.92.62-4.1.93-6.55.93-.52,0-1.02,0-1.5,0-.48,0-.89-.03-1.21-.07-.2.3-.37.63-.53.99-.16.36-.28.72-.38,1.09s-.17.74-.22,1.09c-.05.36-.08.69-.08.99,0,.53.05.97.14,1.32.09.35.22.62.39.81.17.2.38.33.62.4.25.07.53.11.86.11h10.96c1.82,0,3.39.18,4.69.55,1.3.36,2.37.9,3.2,1.61.83.71,1.45,1.59,1.84,2.64s.59,2.25.59,3.6c0,1.16-.22,2.3-.66,3.43-.44,1.13-1.09,2.2-1.94,3.21-.85,1.02-1.89,1.95-3.12,2.81-1.22.86-2.62,1.6-4.19,2.24-1.57.63-3.29,1.12-5.17,1.47s-3.89.53-6.04.53c-2.32,0-4.37-.17-6.16-.5-1.79-.33-3.29-.85-4.51-1.55-1.22-.7-2.14-1.6-2.77-2.69-.63-1.09-.95-2.39-.95-3.92,0-1.2.2-2.28.59-3.25.39-.97.93-1.87,1.62-2.71.69-.83,1.51-1.63,2.45-2.38.94-.75,1.98-1.52,3.1-2.3-.2-.18-.37-.4-.52-.64-.15-.25-.27-.51-.37-.79-.1-.28-.17-.57-.22-.88-.05-.31-.08-.6-.08-.87,0-1.02.2-2.12.6-3.31.4-1.19,1.08-2.49,2.04-3.9-1.08-.36-2.06-.86-2.94-1.47-.88-.62-1.63-1.38-2.25-2.29-.62-.9-1.1-1.96-1.44-3.16-.34-1.2-.51-2.57-.51-4.11,0-2.28.38-4.29,1.14-6.04.76-1.74,1.83-3.21,3.19-4.38,1.37-1.18,2.99-2.07,4.88-2.68,1.89-.61,3.96-.91,6.23-.91.94,0,1.82.06,2.65.19.83.12,1.58.28,2.28.48.69.2,1.31.41,1.86.64s1.01.46,1.39.68c.48-1.39.94-2.55,1.38-3.47.44-.92.91-1.65,1.42-2.19.51-.54,1.08-.92,1.73-1.13s1.4-.32,2.28-.32c.4,0,.85.02,1.34.06s.99.1,1.5.18c.51.08,1.02.18,1.5.3.49.12.93.26,1.34.42l-.57,5.04Zm-8.01,41.04c0-.56-.08-1.09-.25-1.59-.17-.5-.46-.94-.87-1.33-.41-.38-.97-.69-1.67-.91-.7-.22-1.58-.33-2.64-.33h-13.28c-.94.66-1.72,1.29-2.33,1.87-.62.58-1.11,1.14-1.47,1.69-.36.55-.62,1.08-.77,1.61-.15.53-.22,1.07-.22,1.63,0,1.77.75,3.08,2.27,3.94,1.51.85,3.9,1.28,7.17,1.28,2.23,0,4.21-.24,5.96-.73,1.74-.49,3.22-1.11,4.42-1.88,1.2-.76,2.12-1.6,2.75-2.53.63-.92.95-1.83.95-2.71Zm-4.32-29.28c0-1.13-.17-2.18-.5-3.14-.33-.96-.83-1.79-1.5-2.48-.67-.69-1.51-1.23-2.52-1.62-1.01-.39-2.2-.59-3.56-.59-2.96,0-5.16.76-6.61,2.27-1.45,1.51-2.18,3.69-2.18,6.52,0,1.41.19,2.6.56,3.58.37.98.91,1.78,1.63,2.4.72.62,1.59,1.07,2.64,1.36,1.04.29,2.23.43,3.57.43,1.26,0,2.42-.17,3.46-.52,1.04-.34,1.93-.88,2.68-1.59.74-.72,1.32-1.62,1.73-2.72.41-1.1.62-2.4.62-3.9Z"/>
    <path class="cls-5" d="m823.58,229.53c-1.12.58-2.3,1.07-3.55,1.48s-2.57.72-3.96.94-2.87.32-4.46.32c-2.36,0-4.51-.31-6.46-.94s-3.63-1.62-5.03-2.99c-1.4-1.37-2.49-3.14-3.26-5.32-.77-2.18-1.16-4.83-1.16-7.96,0-3.46.42-6.52,1.26-9.16.84-2.64,2.04-4.86,3.59-6.64,1.56-1.78,3.44-3.13,5.65-4.04,2.21-.91,4.69-1.37,7.42-1.37,2.06,0,3.88.34,5.46,1.03s2.91,1.64,3.98,2.87,1.89,2.7,2.44,4.4c.55,1.71.83,3.58.83,5.62v1.26c0,.42,0,.87-.03,1.33-.02.46-.04.96-.07,1.49-.03.53-.07,1.12-.14,1.76h-24.08c0,2.38.22,4.43.66,6.13.44,1.71,1.12,3.11,2.04,4.2s2.07,1.9,3.47,2.41c1.39.51,3.04.77,4.94.77s3.93-.34,5.86-1.02c1.93-.68,3.89-1.64,5.9-2.89l1.93,4.32c-1.04.74-2.12,1.4-3.24,1.98Zm-3.01-21.26c0-1.5-.16-2.83-.49-4.01-.33-1.18-.8-2.18-1.44-3-.63-.82-1.42-1.45-2.35-1.88s-2.02-.64-3.24-.64c-1.45,0-2.77.21-3.98.64s-2.28,1.08-3.2,1.94c-.92.87-1.69,1.95-2.29,3.25-.61,1.3-1.02,2.83-1.24,4.57h18.24v-.88Z"/>
    <path class="cls-5" d="m860.11,231.78v-26.88c0-.81-.07-1.56-.22-2.26-.15-.7-.41-1.31-.79-1.83-.38-.52-.88-.93-1.52-1.23-.64-.3-1.44-.45-2.42-.45-.78,0-1.65.14-2.6.42-.96.28-1.96.69-3,1.23-1.05.54-2.11,1.21-3.2,2-1.09.79-2.15,1.71-3.19,2.75v26.23h-6.41v-37.21l5.45-.47c.12.26.23.61.33,1.05.1.44.19.95.26,1.51s.13,1.18.19,1.83c.05.65.08,1.32.1,1.99,1.27-1.2,2.53-2.22,3.76-3.07,1.23-.85,2.44-1.54,3.63-2.08,1.19-.54,2.36-.94,3.51-1.19s2.29-.38,3.41-.38c1.72,0,3.16.21,4.34.64s2.12,1.07,2.84,1.92c.72.85,1.23,1.91,1.54,3.18.31,1.27.47,2.74.47,4.42v27.83h-6.46Z"/>
    <path class="cls-5" d="m937.96,205.55c0,1.56-.29,3.18-.86,4.86-.57,1.68-1.41,3.39-2.5,5.14-1.09,1.75-2.43,3.5-4,5.27-1.58,1.77-3.37,3.53-5.37,5.27,1.04,1.59,1.98,2.97,2.81,4.15.83,1.18,1.59,2.18,2.28,3.02.68.83,1.31,1.52,1.88,2.06.57.54,1.1.97,1.61,1.28s1,.53,1.47.65c.48.12.97.19,1.47.21.48,0,1.02-.04,1.61-.13.59-.08,1.2-.2,1.83-.33s1.25-.3,1.87-.49c.62-.19,1.2-.38,1.75-.58l1.43,4.39c-.5.29-1.12.58-1.87.89-.75.31-1.57.59-2.45.85-.89.26-1.81.48-2.77.64-.96.17-1.91.25-2.83.25-.86,0-1.67-.08-2.43-.24-.76-.16-1.51-.44-2.26-.84-.74-.4-1.49-.93-2.25-1.59-.76-.66-1.56-1.5-2.41-2.5-.85-1-1.78-2.19-2.77-3.56-1-1.37-2.1-2.97-3.31-4.78-.76.42-1.63.81-2.64,1.17-1,.36-2.07.68-3.2.95s-2.3.48-3.51.62c-1.2.15-2.39.22-3.54.22-2.63,0-4.92-.35-6.88-1.04s-3.57-1.64-4.86-2.84c-1.29-1.2-2.25-2.59-2.89-4.18-.64-1.59-.96-3.27-.96-5.06,0-.85.07-1.66.22-2.43.15-.77.41-1.55.77-2.31.36-.77.85-1.56,1.46-2.38.61-.82,1.38-1.71,2.3-2.66.92-.95,2.02-2,3.29-3.13,1.27-1.14,2.74-2.41,4.42-3.8-.89-1.59-1.61-3.06-2.18-4.4s-1.02-2.61-1.35-3.8c-.33-1.18-.56-2.29-.69-3.32-.13-1.03-.2-2.01-.2-2.95,0-1.63.26-3.19.79-4.69.53-1.5,1.34-2.83,2.43-3.98,1.09-1.16,2.47-2.08,4.14-2.77,1.67-.69,3.64-1.04,5.92-1.04,1.76,0,3.32.22,4.68.65,1.36.44,2.51,1.04,3.45,1.83s1.67,1.72,2.19,2.8c.52,1.09.82,2.28.9,3.58,0,1.11-.08,2.12-.24,3.05-.16.92-.44,1.82-.83,2.69-.39.87-.9,1.73-1.53,2.6-.63.87-1.42,1.8-2.36,2.79-.94,1-2.05,2.08-3.33,3.26-1.28,1.18-2.75,2.52-4.41,4.01,1.73,3.1,3.54,6.24,5.43,9.42,1.89,3.18,3.86,6.36,5.92,9.54,1.48-1.34,2.82-2.67,4-3.98,1.18-1.31,2.19-2.62,3.02-3.91.83-1.29,1.46-2.56,1.91-3.8.45-1.24.67-2.46.67-3.66,0-.6-.09-1.14-.28-1.63-.19-.49-.53-.95-1.02-1.39-.49-.44-1.16-.86-2.01-1.28-.85-.42-1.94-.85-3.25-1.31l2.4-4.32c1.86.44,3.42.97,4.69,1.57,1.26.61,2.28,1.29,3.06,2.04.77.76,1.33,1.58,1.67,2.48.34.9.51,1.86.51,2.87Zm-20.62,19.75c-1.97-3.03-3.85-6.06-5.66-9.09-1.81-3.03-3.57-6.1-5.29-9.23-1.72,1.46-3.13,2.72-4.25,3.78-1.11,1.06-1.99,2.01-2.63,2.85-.64.84-1.08,1.62-1.33,2.33-.25.72-.37,1.46-.37,2.25,0,1.35.25,2.59.74,3.72.49,1.13,1.21,2.1,2.14,2.91.93.81,2.06,1.45,3.4,1.89,1.33.45,2.84.67,4.52.67.7,0,1.45-.05,2.25-.16.79-.1,1.58-.25,2.36-.44.78-.19,1.53-.41,2.24-.66.71-.25,1.34-.53,1.88-.83Zm.94-39.04c0-.96-.15-1.81-.46-2.53-.31-.72-.73-1.33-1.28-1.83-.55-.49-1.2-.87-1.96-1.11-.76-.25-1.6-.37-2.53-.37-1.08,0-2.03.17-2.85.5s-1.5.8-2.05,1.42c-.55.61-.96,1.36-1.24,2.25-.28.89-.42,1.88-.42,2.97,0,.64.05,1.35.14,2.14.09.79.26,1.66.51,2.61.25.95.58,1.98,1.01,3.08.42,1.1.97,2.28,1.63,3.54,1.94-1.76,3.53-3.29,4.76-4.59,1.23-1.3,2.2-2.44,2.9-3.43.7-.98,1.19-1.84,1.46-2.58.27-.74.4-1.42.4-2.06Z"/>
    <path class="cls-5" d="m539.6,317.71c.25.81.42,1.5.51,2.09.09.59.14,1.14.14,1.66,0-.52.06-1.09.19-1.72.12-.62.33-1.3.62-2.03l10.64-27.05h6.07l-15.2,37.13h-5.53l-14.16-37.13h6.72l10,27.05Z"/>
    <path class="cls-5" d="m596.24,308.27c0,2.96-.38,5.66-1.14,8.12s-1.88,4.58-3.36,6.35c-1.48,1.77-3.31,3.15-5.49,4.13-2.18.98-4.69,1.47-7.53,1.47s-5.14-.37-7.21-1.11-3.8-1.87-5.19-3.38c-1.39-1.51-2.43-3.42-3.12-5.73-.7-2.31-1.04-5.04-1.04-8.17s.41-5.71,1.23-8.18c.82-2.47,2-4.6,3.54-6.38s3.42-3.16,5.62-4.14c2.21-.98,4.69-1.47,7.45-1.47s5,.36,7.02,1.07c2.02.72,3.72,1.83,5.08,3.34,1.36,1.51,2.39,3.43,3.09,5.75.7,2.32,1.04,5.1,1.04,8.33Zm-6.64.47c0-2.14-.19-4.07-.57-5.81-.38-1.74-.98-3.22-1.8-4.44-.82-1.22-1.88-2.17-3.17-2.83-1.3-.66-2.86-1-4.7-1-1.64,0-3.12.33-4.43.98-1.32.65-2.43,1.6-3.35,2.85s-1.62,2.79-2.12,4.62c-.5,1.83-.74,3.92-.74,6.28,0,2.66.25,4.89.76,6.69.51,1.8,1.22,3.25,2.14,4.35s2.02,1.88,3.31,2.34,2.71.7,4.28.7c1.72,0,3.23-.34,4.52-1.03,1.3-.68,2.38-1.66,3.25-2.94.87-1.28,1.53-2.82,1.96-4.64.44-1.82.65-3.86.65-6.12Z"/>
    <path class="cls-5" d="m637.43,308.27c0,2.96-.38,5.66-1.14,8.12s-1.88,4.58-3.36,6.35c-1.48,1.77-3.31,3.15-5.49,4.13-2.18.98-4.69,1.47-7.53,1.47s-5.14-.37-7.21-1.11-3.8-1.87-5.19-3.38c-1.39-1.51-2.43-3.42-3.12-5.73-.7-2.31-1.04-5.04-1.04-8.17s.41-5.71,1.23-8.18c.82-2.47,2-4.6,3.54-6.38s3.42-3.16,5.62-4.14c2.21-.98,4.69-1.47,7.45-1.47s5,.36,7.02,1.07c2.02.72,3.72,1.83,5.08,3.34,1.36,1.51,2.39,3.43,3.09,5.75.7,2.32,1.04,5.1,1.04,8.33Zm-6.64.47c0-2.14-.19-4.07-.57-5.81-.38-1.74-.98-3.22-1.8-4.44-.82-1.22-1.88-2.17-3.17-2.83-1.3-.66-2.86-1-4.7-1-1.64,0-3.12.33-4.43.98-1.32.65-2.43,1.6-3.35,2.85s-1.62,2.79-2.12,4.62c-.5,1.83-.74,3.92-.74,6.28,0,2.66.25,4.89.76,6.69.51,1.8,1.22,3.25,2.14,4.35s2.02,1.88,3.31,2.34,2.71.7,4.28.7c1.72,0,3.23-.34,4.52-1.03,1.3-.68,2.38-1.66,3.25-2.94.87-1.28,1.53-2.82,1.96-4.64.44-1.82.65-3.86.65-6.12Z"/>
    <path class="cls-5" d="m666.65,295.62c-.3-.03-.56-.04-.78-.05-.22,0-.42-.01-.6-.02-.18,0-.34,0-.49,0h-.46c-.64,0-1.21.04-1.73.11-.51.07-1.01.23-1.47.47-.47.24-.94.6-1.42,1.07s-1,1.11-1.57,1.91c-.57.8-1.21,1.79-1.91,2.97-.7,1.18-1.52,2.6-2.46,4.27v21.45h-6.41v-37.21l5.06-.55c.14.3.27.78.37,1.44.1.66.2,1.43.28,2.32.08.89.15,1.88.21,2.95s.08,2.17.1,3.29c.68-1.43,1.31-2.68,1.89-3.73s1.15-1.96,1.68-2.71c.53-.75,1.05-1.37,1.54-1.86.49-.48,1-.86,1.51-1.14.51-.28,1.05-.47,1.6-.58.55-.1,1.14-.16,1.77-.16.77,0,1.5.05,2.19.16.69.1,1.24.21,1.64.33l-.55,5.27Z"/>
    <path class="cls-5" d="m680.46,294.82c.82-.75,1.68-1.44,2.59-2.06.9-.62,1.85-1.15,2.84-1.59.99-.44,2.02-.78,3.11-1.03,1.08-.24,2.21-.36,3.38-.36,2.24,0,4.23.36,5.96,1.09,1.73.73,3.19,1.84,4.37,3.32,1.18,1.48,2.07,3.36,2.69,5.62.61,2.26.92,4.92.92,7.98s-.4,5.85-1.2,8.38c-.8,2.53-1.98,4.69-3.53,6.49-1.55,1.8-3.46,3.2-5.74,4.2-2.28,1-4.9,1.49-7.85,1.49-2.4,0-4.75-.22-7.06-.67-2.31-.45-4.57-1.21-6.77-2.29v-54.32l6.31-.49v24.24Zm19.28,13.61c0-2-.18-3.83-.54-5.47-.36-1.64-.91-3.05-1.66-4.22-.75-1.17-1.7-2.08-2.86-2.71-1.16-.64-2.54-.96-4.14-.96-.87,0-1.75.12-2.64.36-.89.24-1.75.58-2.6,1.02-.85.44-1.67.96-2.47,1.58-.8.62-1.57,1.31-2.29,2.08v22.07c.64.29,1.26.53,1.86.72.6.2,1.2.35,1.81.47s1.24.2,1.89.25c.66.05,1.36.08,2.12.08,1.86,0,3.51-.34,4.94-1.03,1.43-.68,2.64-1.68,3.61-2.99s1.72-2.91,2.22-4.79c.5-1.89.75-4.04.75-6.46Z"/>
    <path class="cls-5" d="m741.3,325.53c-1.12.58-2.3,1.07-3.55,1.48s-2.57.72-3.96.94-2.87.32-4.46.32c-2.36,0-4.51-.31-6.46-.94s-3.63-1.62-5.03-2.99c-1.4-1.37-2.49-3.14-3.26-5.32-.77-2.18-1.16-4.83-1.16-7.96,0-3.46.42-6.52,1.26-9.16.84-2.64,2.04-4.86,3.59-6.64,1.56-1.78,3.44-3.13,5.65-4.04,2.21-.91,4.69-1.37,7.42-1.37,2.06,0,3.88.34,5.46,1.03s2.91,1.64,3.98,2.87,1.89,2.7,2.44,4.4c.55,1.71.83,3.58.83,5.62v1.26c0,.42,0,.87-.03,1.33-.02.46-.04.96-.07,1.49-.03.53-.07,1.12-.14,1.76h-24.08c0,2.38.22,4.43.66,6.13.44,1.71,1.12,3.11,2.04,4.2s2.07,1.9,3.47,2.41c1.39.51,3.04.77,4.94.77s3.93-.34,5.86-1.02c1.93-.68,3.89-1.64,5.9-2.89l1.93,4.32c-1.04.74-2.12,1.4-3.24,1.98Zm-3.01-21.26c0-1.5-.16-2.83-.49-4.01-.33-1.18-.8-2.18-1.44-3-.63-.82-1.42-1.45-2.35-1.88s-2.02-.64-3.24-.64c-1.45,0-2.77.21-3.98.64s-2.28,1.08-3.2,1.94c-.92.87-1.69,1.95-2.29,3.25-.61,1.3-1.02,2.83-1.24,4.57h18.24v-.88Z"/>
    <path class="cls-5" d="m779.62,325.53c-1.12.58-2.3,1.07-3.55,1.48s-2.57.72-3.96.94-2.87.32-4.46.32c-2.36,0-4.51-.31-6.46-.94s-3.63-1.62-5.03-2.99c-1.4-1.37-2.49-3.14-3.26-5.32-.77-2.18-1.16-4.83-1.16-7.96,0-3.46.42-6.52,1.26-9.16.84-2.64,2.04-4.86,3.59-6.64,1.56-1.78,3.44-3.13,5.65-4.04,2.21-.91,4.69-1.37,7.42-1.37,2.06,0,3.88.34,5.46,1.03s2.91,1.64,3.98,2.87,1.89,2.7,2.44,4.4c.55,1.71.83,3.58.83,5.62v1.26c0,.42,0,.87-.03,1.33-.02.46-.04.96-.07,1.49-.03.53-.07,1.12-.14,1.76h-24.08c0,2.38.22,4.43.66,6.13.44,1.71,1.12,3.11,2.04,4.2s2.07,1.9,3.47,2.41c1.39.51,3.04.77,4.94.77s3.93-.34,5.86-1.02c1.93-.68,3.89-1.64,5.9-2.89l1.93,4.32c-1.04.74-2.12,1.4-3.24,1.98Zm-3.01-21.26c0-1.5-.16-2.83-.49-4.01-.33-1.18-.8-2.18-1.44-3-.63-.82-1.42-1.45-2.35-1.88s-2.02-.64-3.24-.64c-1.45,0-2.77.21-3.98.64s-2.28,1.08-3.2,1.94c-.92.87-1.69,1.95-2.29,3.25-.61,1.3-1.02,2.83-1.24,4.57h18.24v-.88Z"/>
    <path class="cls-5" d="m798.93,320.11c0,.53.03.98.09,1.34.06.36.18.64.37.86.19.21.46.37.82.46.36.09.84.14,1.44.14.65,0,1.24-.02,1.77-.07.53-.05,1.11-.13,1.75-.24l.49,4.47c-.4.14-.88.28-1.42.4-.54.12-1.11.23-1.72.33s-1.23.17-1.88.22c-.64.05-1.27.08-1.87.08-1.04,0-1.95-.12-2.72-.36-.77-.24-1.42-.62-1.92-1.13-.51-.51-.89-1.17-1.14-1.98-.25-.81-.38-1.78-.38-2.91v-50.57l6.33-.49v49.45Z"/>
    <path class="cls-5" d="m836.86,328.02c-.25-.48-.44-1.15-.59-2-.14-.85-.21-1.78-.21-2.78-.66.7-1.41,1.36-2.24,1.97-.83.61-1.73,1.15-2.71,1.6-.98.46-2.03.81-3.15,1.07-1.13.26-2.32.39-3.58.39-1.97,0-3.68-.24-5.13-.73-1.45-.49-2.69-1.16-3.72-2.02-1.03-.86-1.87-1.87-2.52-3.03-.65-1.16-1.16-2.41-1.52-3.75-.36-1.34-.62-2.74-.75-4.2-.14-1.46-.21-2.91-.21-4.36,0-3.36.43-6.31,1.3-8.85.87-2.54,2.08-4.66,3.65-6.36,1.57-1.7,3.44-2.98,5.62-3.84,2.18-.86,4.58-1.29,7.2-1.29,1.56,0,3,.12,4.32.36,1.31.24,2.43.6,3.36,1.08v-20.23l6.41-.41v56.97l-5.53.39Zm-.88-31.76c-1.02-.48-2.18-.86-3.49-1.12-1.31-.27-2.63-.4-3.96-.4-1.82,0-3.44.3-4.86.9-1.42.6-2.62,1.52-3.59,2.76-.98,1.24-1.72,2.81-2.23,4.71s-.76,4.14-.76,6.75c0,2.38.19,4.41.56,6.09s.93,3.05,1.69,4.12c.75,1.07,1.71,1.85,2.85,2.33,1.15.49,2.49.73,4.02.73,1.02,0,2.01-.14,2.98-.42.97-.28,1.88-.63,2.72-1.04.85-.42,1.61-.87,2.3-1.37.69-.49,1.28-.96,1.76-1.41v-22.64Z"/>
    <path class="cls-5" d="m880.26,325.53c-1.12.58-2.3,1.07-3.55,1.48s-2.57.72-3.96.94-2.87.32-4.46.32c-2.36,0-4.51-.31-6.46-.94s-3.63-1.62-5.03-2.99c-1.4-1.37-2.49-3.14-3.26-5.32-.77-2.18-1.16-4.83-1.16-7.96,0-3.46.42-6.52,1.26-9.16.84-2.64,2.04-4.86,3.59-6.64,1.56-1.78,3.44-3.13,5.65-4.04,2.21-.91,4.69-1.37,7.42-1.37,2.06,0,3.88.34,5.46,1.03s2.91,1.64,3.98,2.87,1.89,2.7,2.44,4.4c.55,1.71.83,3.58.83,5.62v1.26c0,.42,0,.87-.03,1.33-.02.46-.04.96-.07,1.49-.03.53-.07,1.12-.14,1.76h-24.08c0,2.38.22,4.43.66,6.13.44,1.71,1.12,3.11,2.04,4.2s2.07,1.9,3.47,2.41c1.39.51,3.04.77,4.94.77s3.93-.34,5.86-1.02c1.93-.68,3.89-1.64,5.9-2.89l1.93,4.32c-1.04.74-2.12,1.4-3.24,1.98Zm-3.01-21.26c0-1.5-.16-2.83-.49-4.01-.33-1.18-.8-2.18-1.44-3-.63-.82-1.42-1.45-2.35-1.88s-2.02-.64-3.24-.64c-1.45,0-2.77.21-3.98.64s-2.28,1.08-3.2,1.94c-.92.87-1.69,1.95-2.29,3.25-.61,1.3-1.02,2.83-1.24,4.57h18.24v-.88Z"/>
    <path class="cls-5" d="m916.79,327.78v-26.88c0-.81-.07-1.56-.22-2.26-.15-.7-.41-1.31-.79-1.83-.38-.52-.88-.93-1.52-1.23-.64-.3-1.44-.45-2.42-.45-.78,0-1.65.14-2.6.42-.96.28-1.96.69-3,1.23-1.05.54-2.11,1.21-3.2,2-1.09.79-2.15,1.71-3.19,2.75v26.23h-6.41v-37.21l5.45-.47c.12.26.23.61.33,1.05.1.44.19.95.26,1.51s.13,1.18.19,1.83c.05.65.08,1.32.1,1.99,1.27-1.2,2.53-2.22,3.76-3.07,1.23-.85,2.44-1.54,3.63-2.08,1.19-.54,2.36-.94,3.51-1.19s2.29-.38,3.41-.38c1.72,0,3.16.21,4.34.64s2.12,1.07,2.84,1.92c.72.85,1.23,1.91,1.54,3.18.31,1.27.47,2.74.47,4.42v27.83h-6.46Z"/>
  </g>
</svg>