<?xml version="1.0" encoding="UTF-8"?>
<svg id="Laag_1" data-name="Laag 1" xmlns="http://www.w3.org/2000/svg" xmlns:xlink="http://www.w3.org/1999/xlink" viewBox="0 0 1222 480.66">
  <defs>
    <style>
      .cls-1 {
        fill: #4a4949;
      }

      .cls-1, .cls-2, .cls-3, .cls-4, .cls-5, .cls-6, .cls-7, .cls-8 {
        stroke-width: 0px;
      }

      .cls-2 {
        fill: url(#Naamloos_verloop_19);
      }

      .cls-3 {
        fill: url(#Naamloos_verloop_9);
      }

      .cls-4 {
        fill: #adb4d2;
      }

      .cls-5 {
        fill: #fff;
      }

      .cls-6 {
        fill: url(#radial-gradient);
      }

      .cls-7 {
        fill: #008296;
      }

      .cls-8 {
        fill: #e7efff;
      }
    </style>
    <linearGradient id="Naamloos_verloop_9" data-name="Naamloos verloop 9" x1="636.44" y1="408.74" x2="636.44" y2="79.67" gradientUnits="userSpaceOnUse">
      <stop offset="0" stop-color="#008296"/>
      <stop offset="1" stop-color="#008296" stop-opacity=".3"/>
    </linearGradient>
    <linearGradient id="Naamloos_verloop_19" data-name="Naamloos verloop 19" x1="636.44" y1="390.62" x2="636.44" y2="97.79" gradientUnits="userSpaceOnUse">
      <stop offset="0" stop-color="#94e0fe" stop-opacity=".3"/>
      <stop offset="1" stop-color="#008296"/>
    </linearGradient>
    <radialGradient id="radial-gradient" cx="51.3" cy="-301.81" fx="51.3" fy="-301.81" r="801.22" gradientUnits="userSpaceOnUse">
      <stop offset="0" stop-color="#3a4a92"/>
      <stop offset=".02" stop-color="#3f4e94"/>
      <stop offset=".29" stop-color="#828cba"/>
      <stop offset=".53" stop-color="#b8bdd7"/>
      <stop offset=".73" stop-color="#dee1ed"/>
      <stop offset=".9" stop-color="#f6f7fa"/>
      <stop offset="1" stop-color="#fff"/>
    </radialGradient>
  </defs>
  <g>
    <path class="cls-3" d="m233.41,408.74c-90.72,0-164.53-73.81-164.53-164.53S142.69,79.67,233.41,79.67h806.06c90.72,0,164.53,73.81,164.53,164.53s-73.81,164.53-164.53,164.53H233.41Z"/>
    <path class="cls-2" d="m233.41,390.62c-80.74,0-146.42-65.68-146.42-146.42S152.68,97.79,233.41,97.79h806.06c80.74,0,146.42,65.68,146.42,146.42s-65.68,146.42-146.42,146.42H233.41Z"/>
    <g>
      <circle class="cls-4" cx="237.18" cy="243.01" r="221.39" transform="translate(-102.37 238.89) rotate(-45)"/>
      <circle class="cls-8" cx="237.18" cy="235.86" r="221.39"/>
      <circle class="cls-6" cx="237.18" cy="235.86" r="199.75"/>
    </g>
  </g>
  <g>
    <path class="cls-5" d="m238.87,144.27c-51.68,0-93.57,41.89-93.57,93.53s41.89,93.55,93.57,93.55,93.54-41.88,93.54-93.55-41.87-93.53-93.54-93.53Z"/>
    <path class="cls-7" d="m159.44,246.05c-4.25-14.31.67-27.71,11.28-28.77,9.53-.94,17.7-15.11,24.41-24.4,13.8-19.11,35-15.9,33.94-25.48-1.22-5.59-4.53-7.3-8.72-7.3-6.35,0-14.7,3.87-20.99,4.12-7.21.28-14.12,1.25-21.01,2.26-19.5,16.59-32.13,41-32.97,68.41,5.53,5.79,12.8,18.92,21.2,26.52l3.61-1.31c-4.12-4.79-9.88-11.11-10.75-14.05Z"/>
    <path class="cls-7" d="m224.83,266.08c-14.7-4.13-19.16-5.45-33.95-8.46-3.03-.63-4.91-.94-6.61-.94-2.63,0-4.8.75-10.09,2.3l-4,1.12c-1.61.55-2.13.64-3.61,1.31-3.44,1.54-5.92,3.87-6.5,8.9-1.04,9.08,7.59,16.21,14.87,18.28,9.25,2.65,10.01-.45,14.87,6.11,3.38,4.58,4.03,13.08,5.77,18.67.98,3.12,2.27,6.24,3.85,9.27,6.59,3.09,13.6,5.43,20.94,6.88,1.81-10.77.98-25.3,3.41-31.6,4.94-12.86,7.72-18.54,1.05-31.85Z"/>
    <path class="cls-7" d="m301.62,168.44c-1.69.48-3.82.56-6.75.03-2.51-.45-4.77-.68-6.83-.68-13.81,0-17.96,9.55-22.88,16.59-4.33,6.17-19.53,7.87-24.42,14.84-3.79,5.44.13,16.12-3.17,22.31-1.53,2.83-.83,11.07,1.03,13.76,5.86,8.52,15.59,3.78,22.91,6.88,8.9,3.7,9.94,14.08,17.35,21.65,7.43,7.58-9.47,19.27,4.32,46.86,1.48,2.96,3.18,5.14,5.02,6.61,9.32-5.8,17.52-13.18,24.28-21.79,2.08-13.91-2.62-18.39,3.27-31.14,3.63-7.86,9.83-21.48,16.53-30.71-1.13-25.84-12.71-48.95-30.67-65.19Z"/>
    <path class="cls-1" d="m208.86,216.93c15.94-6.76,33.19-12.18,56.44-14.12-5.93-14.24-12.46-24.26-20.16-33.47-17.16,1.37-32.8,6.01-46.34,11.59,1.98,10.56,5.75,23.3,10.05,36m74.22,39.19c-22.03-.26-41.24,5-54.39,11.48,5.57,11.99,16.59,27.86,20.69,34.41,7.19-2.67,14.87-4.67,20.84-5.59,5.98-.94,13.91-1.81,19.32-1.72-.98-13.95-2.61-23.38-6.46-38.57m-58.36,3.48c17.59-8.1,36.92-11.74,56.38-11.2-5.32-18.41-8.36-26.94-12.88-38.14-21.63.94-40.05,6.27-56.86,14.24,0,0,6.2,19.89,13.35,35.1m67.65-88.78c-10.79-1.97-26.54-3.21-38.19-2.51,7.94,11.01,13.78,20.63,19.26,34.31,14.77.37,34.84,4.76,43.08,8-4.91-13.09-14.25-29.71-24.14-39.81m33.55,86.93c-.65-12.14-2.51-28.38-7.02-39.69-11.93-4.8-28.25-7.79-42.57-7.92,4.42,10.32,9.55,27.53,12.05,38.6,10.36,1.25,26.55,4.19,37.54,9.01m-9.85-84.97c-15.38-18.87-50.23-34.9-89.01-32.49,8.66,5.71,15.88,14.35,22.2,21.46,9.7-.89,30.01.71,37.68,2.81-1.31-1.53-2.9-3.04-3.32-3.97-1.08-2.33,1.51-2.83,3.62-1.51,2.66,1.7,5.71,3.74,8.13,6.2,4.5,1.01,15.58,4.81,20.7,7.49m18.57,90.73c-.45,1.52-3.09,3.02-4.34,2.64.18,2.68-.45,16.06-1.14,21.18,1.84-3.8,5.38-13.25,6.45-17.25l1.5-5.86c1.49-5,6.33-22.24,1.95-44.89-4.87-25.18-13.96-34.16-17.14-38.17-8.11-4.41-20.34-8.39-20.34-8.39,11.09,15.02,14.95,22.1,21.56,39.98,3.85,2,10.85,5.85,11.7,6.94.71.83.71,2.32-1.48,2.3-1.81-.02-5.34-1.75-8.09-2.49,2.9,9.74,5.17,27.95,5,40.14,0,0,4.83,2.33,4.37,3.85m-14.15,37.05c1.58-1.57,3.97-4.94,4.89-6.92.94-7.98.96-24.37.63-29.17-9.63-3.91-24.55-7.02-35.41-7.8,3.54,12.99,5.31,32.07,5.57,38.32,5.23.51,18.4,3.18,24.32,5.57m-24.75,21.97c8.41-5.26,16.35-11.3,22.09-18.58-4.94-1.26-16.01-2.76-21.49-2.39,0,0-.18,13.13-.61,20.97m-23.03,10.86c4.18-1.36,14.87-6.2,17.09-7.66.53-8.64.44-18.42.09-24.27-11.23,0-27.06,3.28-36.12,7.09,5.25,8.46,12.51,17.8,18.94,24.83m-50.5-7.37c3.14,3.18,15.59,11.4,15.59,11.4,8.26.37,18.71-.61,26.18-1.92-4.12-4.69-14.4-19.23-17.51-24.13-7.96,3.32-18.04,9.46-24.26,14.65m-34.02-34.65c7.91,10.16,20.31,23.06,28.93,30.15,8.16-6.55,17.42-12.68,25.11-16.41-6.63-10.31-16.45-25.25-20.57-34.45-14.72,6.55-23.08,12-33.47,20.71m-21.05-40.69c5.04,14.39,9.92,25.35,16.3,34.42,7.44-6.48,22.71-16.71,34.38-22.31-3.85-8.25-9.41-23.72-13.26-35.27-15.04,7.37-26.27,14.56-37.41,23.15m-12.07-43.21c1.22,8.28,5.18,26.14,8.76,35.21,8.49-6.4,27.73-18.26,38.6-23.07-3.8-13.87-6.37-22.61-8.49-36.61-15.39,6.83-31.65,17.47-38.87,24.48m-1.86-29.49c-.54,4.2,0,11.89,1.07,21.09,8.49-7.57,24.89-17.51,38.61-23.53-1.6-10.45-3.28-27.13-3.1-31.58-12.68,6.97-26.6,20.97-36.81,35.29m41.5-43.48c18.23-7.53,35.98-11.68,56.46-8.89,2.28.31,2.08,2.25-.34,2.26l-2.88.09c-16.49.26-40.77,5.52-53.33,12.6-.27,8.39,1.32,21.7,2.99,32.17,11.42-4.77,29.05-9.71,42.47-11.17-7.61-8.11-17.96-15.73-19.19-16.62-1.25-.91-1.85-2.43-1.85-4.38.17-3.62,3.32-4.07,4.98-3.65,5.58-1.09,11.12-2.29,20.54-2.01,39.94-1.75,76.4,20.82,90.32,46.58,35.27,55.76.03,132.69-46.15,153.2-19.75,8.76-36.68,12.54-67.89,8.18-31.28-4.36-56.85-19.65-76.71-51.78-24.45-39.63-10.69-85.74-7.25-95.43,14.72-34.72,38.86-53.13,57.84-61.12m-47.1,68.63c-.41-5.99-.89-14.21-.89-14.21-4.4,9.58-7.04,15.38-8.27,26.56,3.1-5.47,9.15-12.35,9.15-12.35m64.42,121.58c-6.64-4.94-23.05-20.52-29.87-29.93-2.49,1.48-5.3,5.5-8.93,6.19l-5.55.25,1.24-3.73c1.76-2.29,4.35-5.29,8.13-8.23-8.08-11.87-11.95-20.54-17.43-34.84-3.19,1.99-5.5,3.76-8.28,5.98l-4.75.08c-2.28-2.05-2.31-5.62.88-7.88,1.3-.94,7.79-5.4,9.29-6.67-3.99-11.46-7.3-26.54-8.19-34.36-2.64,2.3-6.38,4.93-7.43,5.64-1.5.43-2.52-.06-2.96-.11-1.5,16.21.25,34.08,5.07,50.21,8.29,27.74,31.55,54.19,62.94,64.03.72-1.09,4.34-5.27,5.84-6.61m16.37,11.11c-3.11-1.76-6.98-4.52-10.61-6.93-1.5,1.33-2.72,3.29-3.92,4.86,4.15,1.43,9.75,1.54,14.53,2.07"/>
  </g>
  <g>
    <path class="cls-5" d="m526.48,282.12v-54.32h32.32l-.41,5.2h-25.27v18.4h22.15v5.2h-22.15v20.33h25.35l.41,5.2h-32.4Z"/>
    <path class="cls-5" d="m593.54,271.96c0,1.42-.27,2.78-.81,4.08-.54,1.3-1.4,2.45-2.58,3.45-1.18,1-2.7,1.79-4.55,2.38s-4.09.89-6.71.89c-2.42,0-4.7-.27-6.84-.82-2.14-.55-4.15-1.34-6.04-2.38l1.6-5.04c2.04,1,4.09,1.8,6.15,2.39,2.06.59,4.03.89,5.92.89,1.38,0,2.55-.13,3.52-.4.96-.27,1.75-.63,2.35-1.08.61-.46,1.04-.98,1.32-1.58.27-.6.41-1.23.41-1.89,0-.7-.08-1.34-.25-1.9-.17-.57-.53-1.11-1.09-1.62-.56-.51-1.36-1.02-2.39-1.52-1.04-.5-2.43-1.03-4.17-1.59-1.59-.51-2.98-1.01-4.17-1.51-1.19-.5-2.22-1.02-3.09-1.55-.87-.53-1.59-1.09-2.16-1.67-.57-.58-1.03-1.2-1.36-1.86-.33-.66-.57-1.37-.7-2.13s-.21-1.59-.21-2.49c0-1.56.31-3.01.93-4.34.62-1.33,1.52-2.48,2.71-3.45,1.18-.97,2.64-1.73,4.37-2.28,1.73-.55,3.69-.82,5.91-.82,2.34,0,4.45.22,6.33.65,1.88.44,3.58,1.1,5.12,2l-1.76,4.86c-.59-.3-1.28-.58-2.07-.84-.79-.26-1.64-.49-2.54-.68s-1.82-.35-2.77-.46c-.95-.11-1.88-.17-2.77-.17-1.38,0-2.53.13-3.45.39-.92.26-1.65.62-2.2,1.07-.55.46-.93.99-1.15,1.6-.22.61-.33,1.27-.33,1.97,0,.52.04.99.12,1.42.08.42.22.81.44,1.17.21.36.51.7.9,1.02.38.32.88.63,1.49.95.61.31,1.35.63,2.22.96.87.33,1.89.68,3.08,1.05,2.36.76,4.27,1.52,5.74,2.3,1.47.78,2.62,1.6,3.44,2.47.82.87,1.38,1.8,1.67,2.8.29,1,.44,2.1.44,3.3Z"/>
    <path class="cls-5" d="m622.75,249.95c-.3-.03-.56-.04-.78-.05-.22,0-.42-.01-.6-.02-.18,0-.34,0-.49,0h-.46c-.64,0-1.21.04-1.73.11-.51.07-1.01.23-1.47.47-.47.24-.94.6-1.42,1.07s-1,1.11-1.57,1.91c-.57.8-1.21,1.79-1.91,2.97-.7,1.18-1.52,2.6-2.46,4.27v21.45h-6.41v-37.21l5.06-.55c.14.3.27.78.37,1.44.1.66.2,1.43.28,2.32.08.89.15,1.88.21,2.95s.08,2.17.1,3.29c.68-1.43,1.31-2.68,1.89-3.73s1.15-1.96,1.68-2.71c.53-.75,1.05-1.37,1.54-1.86.49-.48,1-.86,1.51-1.14.51-.28,1.05-.47,1.6-.58.55-.1,1.14-.16,1.77-.16.77,0,1.5.05,2.19.16.69.1,1.24.21,1.64.33l-.55,5.27Z"/>
    <path class="cls-5" d="m629.84,236.44v-6.15h7.15v6.15h-7.15Zm.41,45.68v-37.21l6.41-.39v37.6h-6.41Z"/>
    <path class="cls-5" d="m698.57,282.12l-5.84-16.64h-20.23l-6.41,16.64h-6.41l20.57-54.32h6.25l19.28,54.32h-7.21Zm-24.47-21.45h17.11l-7.36-21.76c-.27-.85-.48-1.65-.61-2.4-.13-.75-.2-1.39-.2-1.91,0,.26-.02.56-.07.9-.05.34-.11.7-.2,1.07-.08.38-.19.77-.3,1.17-.12.4-.25.79-.39,1.17l-7.99,21.76Z"/>
    <path class="cls-5" d="m732.75,249.95c-.3-.03-.56-.04-.78-.05-.22,0-.42-.01-.6-.02-.18,0-.34,0-.49,0h-.46c-.64,0-1.21.04-1.73.11-.51.07-1.01.23-1.47.47-.47.24-.94.6-1.42,1.07s-1,1.11-1.57,1.91c-.57.8-1.21,1.79-1.91,2.97-.7,1.18-1.52,2.6-2.46,4.27v21.45h-6.41v-37.21l5.06-.55c.14.3.27.78.37,1.44.1.66.2,1.43.28,2.32.08.89.15,1.88.21,2.95s.08,2.17.1,3.29c.68-1.43,1.31-2.68,1.89-3.73s1.15-1.96,1.68-2.71c.53-.75,1.05-1.37,1.54-1.86.49-.48,1-.86,1.51-1.14.51-.28,1.05-.47,1.6-.58.55-.1,1.14-.16,1.77-.16.77,0,1.5.05,2.19.16.69.1,1.24.21,1.64.33l-.55,5.27Z"/>
    <path class="cls-5" d="m762.89,250.52c-.6-.2-1.21-.36-1.84-.51-.62-.14-1.24-.26-1.85-.35-.61-.09-1.19-.16-1.75-.2-.56-.04-1.07-.06-1.54-.06-2.06,0-3.84.31-5.34.92-1.5.61-2.75,1.54-3.74,2.79-.99,1.25-1.72,2.82-2.2,4.7-.48,1.88-.71,4.09-.71,6.63,0,2.17.2,4.07.61,5.67.4,1.61,1.03,2.94,1.88,3.99.85,1.05,1.93,1.84,3.26,2.35,1.33.51,2.91.77,4.75.77,1.65,0,3.28-.23,4.87-.68,1.59-.46,3.14-1.11,4.64-1.95l1.91,4.73c-1.81,1.08-3.78,1.91-5.9,2.49-2.12.58-4.47.87-7.05.87-2.44,0-4.61-.32-6.51-.97-1.91-.64-3.52-1.67-4.83-3.09-1.32-1.41-2.31-3.25-3-5.51-.68-2.26-1.03-5-1.03-8.21,0-3.44.45-6.46,1.34-9.05.89-2.6,2.14-4.77,3.75-6.5,1.61-1.74,3.53-3.05,5.75-3.93s4.67-1.32,7.32-1.32c1.69,0,3.23.11,4.62.33,1.39.22,2.72.59,4.01,1.11l-1.43,4.96Z"/>
    <path class="cls-5" d="m808.71,279.34c-1.45.67-2.97,1.26-4.57,1.76-1.6.5-3.28.89-5.03,1.17-1.75.28-3.56.42-5.42.42-3.59,0-6.77-.5-9.54-1.51-2.77-1.01-5.09-2.58-6.97-4.73-1.88-2.14-3.3-4.88-4.27-8.21-.96-3.33-1.45-7.32-1.45-11.95s.51-8.39,1.54-11.96c1.03-3.57,2.53-6.63,4.51-9.16,1.98-2.53,4.41-4.49,7.3-5.86,2.89-1.37,6.19-2.06,9.9-2.06,1.8,0,3.43.07,4.89.2,1.46.13,2.83.33,4.11.61,1.28.27,2.51.62,3.69,1.04,1.18.42,2.4.93,3.63,1.51l-1.91,5.2c-2.24-1-4.53-1.76-6.88-2.27-2.35-.51-4.89-.76-7.61-.76s-4.91.51-6.94,1.53c-2.04,1.02-3.75,2.51-5.15,4.46-1.39,1.95-2.46,4.34-3.19,7.17-.74,2.83-1.1,6.04-1.1,9.63,0,2.71.18,5.12.55,7.25.36,2.12.89,3.98,1.57,5.58.68,1.6,1.52,2.95,2.5,4.07.98,1.12,2.09,2.03,3.31,2.72,1.22.7,2.56,1.2,4.01,1.51,1.45.31,2.99.47,4.62.47,1.04,0,2.04-.06,2.99-.18.95-.12,1.89-.3,2.81-.54.92-.24,1.85-.54,2.77-.9.92-.36,1.88-.78,2.85-1.26v-12.81h-11.99l.31-4.96h18.16v20.64c-1.24.78-2.58,1.51-4.02,2.18Z"/>
    <path class="cls-5" d="m844.98,232.43l-8.09.33v44.47l8.16.33v4.55h-22.87v-4.55l7.99-.33v-44.47l-7.91-.33v-4.63h22.71v4.63Z"/>
    <path class="cls-5" d="m886.82,267.39c0,2.24-.42,4.3-1.27,6.17-.85,1.88-2.1,3.49-3.76,4.83s-3.71,2.4-6.16,3.15c-2.45.75-5.27,1.13-8.48,1.13-1.54,0-2.99-.07-4.37-.21-1.37-.14-2.69-.35-3.95-.63-1.26-.28-2.47-.63-3.63-1.04-1.17-.42-2.31-.9-3.43-1.46l2.01-5.61c1,.46,2.09.88,3.26,1.27s2.39.73,3.65,1.02c1.26.29,2.55.51,3.86.67,1.31.16,2.59.24,3.86.24,1.91,0,3.59-.21,5.04-.62,1.45-.42,2.65-1,3.6-1.74s1.68-1.62,2.16-2.64c.48-1.02.72-2.12.72-3.32,0-.82-.06-1.58-.18-2.27-.12-.69-.34-1.33-.65-1.92-.32-.59-.76-1.15-1.31-1.68-.55-.53-1.27-1.05-2.15-1.56-.88-.51-1.94-1.03-3.17-1.55-1.24-.52-2.7-1.07-4.38-1.66-2.58-.92-4.77-1.87-6.58-2.82-1.81-.96-3.28-2.03-4.41-3.23-1.13-1.2-1.96-2.56-2.47-4.09-.51-1.53-.77-3.32-.77-5.38s.35-4.11,1.05-5.98c.7-1.86,1.78-3.49,3.24-4.87,1.46-1.39,3.31-2.48,5.55-3.29,2.24-.81,4.9-1.21,7.99-1.21,2.79,0,5.35.24,7.7.73s4.42,1.26,6.23,2.31l-1.84,5.43c-1.05-.44-2.12-.83-3.2-1.17-1.08-.34-2.14-.62-3.17-.85-1.04-.23-2.03-.4-3-.52-.96-.12-1.87-.18-2.71-.18-2.04,0-3.77.2-5.17.6-1.4.4-2.54.97-3.41,1.71-.87.74-1.5,1.65-1.88,2.71-.38,1.07-.58,2.27-.58,3.61,0,.78.06,1.51.17,2.19.11.68.31,1.31.61,1.9.29.59.69,1.15,1.19,1.68.5.53,1.15,1.04,1.93,1.54.79.5,1.73,1,2.84,1.49,1.11.5,2.41,1,3.91,1.52,2.11.73,3.96,1.46,5.54,2.19,1.58.73,2.95,1.47,4.1,2.23,1.15.76,2.11,1.54,2.86,2.35.75.81,1.35,1.68,1.8,2.59.44.91.75,1.88.94,2.91.18,1.03.27,2.14.27,3.32Z"/>
  </g>
</svg>